<?xml version="1.0" encoding="UTF-8"?> <svg xmlns="http://www.w3.org/2000/svg" xmlns:xlink="http://www.w3.org/1999/xlink" version="1.1" x="0px" y="0px" viewBox="0 0 705.8 697.7" style="enable-background:new 0 0 705.8 697.7;" xml:space="preserve"> <style type="text/css"> .st0{fill:#dddddd;} </style> <g id="Layer_1"> </g> <g id="Konst"> </g> <g id="Teater"> </g> <g id="Museum"> </g> <g id="Författarbesök"> </g> <g id="Skolbio"> </g> <g id="Musik"> <g> <g> <path class="st0" d="M120.5,615c-2.4,0-4.9-0.9-6.8-2.6c-35.5-32.7-63.4-71.6-83.1-115.4C10.3,451.5,0,403.1,0,352.9 c0-47.6,9.3-93.9,27.7-137.4c17.8-42,43.2-79.8,75.6-112.2c32.4-32.4,70.1-57.9,112.2-75.6C259,9.3,305.3,0,352.9,0 s93.9,9.3,137.4,27.7c42,17.8,79.8,43.2,112.2,75.6c32.4,32.4,57.9,70.1,75.6,112.2c18.4,43.5,27.7,89.7,27.7,137.4 c0,73.4-22.3,143.7-64.5,203.4c-3.2,4.5-9.4,5.6-13.9,2.4c-4.5-3.2-5.6-9.4-2.4-13.9c39.8-56.3,60.8-122.7,60.8-191.9 C685.8,169.3,536.5,20,352.9,20S20,169.3,20,352.9c0,92.7,39.1,181.9,107.3,244.8c4.1,3.7,4.3,10.1,0.6,14.1 C125.9,613.9,123.2,615,120.5,615z"></path> </g> <g> <g> <path class="st0" d="M204.8,303.9C204.8,303.9,204.8,303.9,204.8,303.9S204.8,303.9,204.8,303.9 C204.8,303.9,204.8,303.9,204.8,303.9C204.8,303.9,204.8,303.9,204.8,303.9z M190.9,343.5c-0.1,0.3-0.2,0.7-0.3,1 c0.1-0.2,0.1-0.4,0.2-0.6c0.1-0.2,0.2-0.5,0.2-0.7C191,343.3,190.9,343.4,190.9,343.5z M185.8,358.8 C185.8,358.8,185.8,358.8,185.8,358.8c-0.1,0.3-0.2,0.5-0.2,0.7C185.6,359.3,185.7,359,185.8,358.8c0-0.1,0-0.1,0.1-0.1 C185.8,358.7,185.8,358.7,185.8,358.8z M204.8,303.9C204.8,303.9,204.8,303.9,204.8,303.9S204.8,303.9,204.8,303.9 C204.8,303.9,204.8,303.9,204.8,303.9C204.8,303.9,204.8,303.9,204.8,303.9z M190.9,343.5c-0.1,0.3-0.2,0.7-0.3,1 c0.1-0.2,0.1-0.4,0.2-0.6c0.1-0.2,0.2-0.5,0.2-0.7C191,343.3,190.9,343.4,190.9,343.5z M185.8,358.8 C185.8,358.8,185.8,358.8,185.8,358.8c-0.1,0.3-0.2,0.5-0.2,0.7C185.6,359.3,185.7,359,185.8,358.8c0-0.1,0-0.1,0.1-0.1 C185.8,358.7,185.8,358.7,185.8,358.8z M204.8,303.9C204.8,303.9,204.8,303.9,204.8,303.9S204.8,303.9,204.8,303.9 C204.8,303.9,204.8,303.9,204.8,303.9C204.8,303.9,204.8,303.9,204.8,303.9z M190.9,343.5c-0.1,0.3-0.2,0.7-0.3,1 c0.1-0.2,0.1-0.4,0.2-0.6c0.1-0.2,0.2-0.5,0.2-0.7C191,343.3,190.9,343.4,190.9,343.5z M185.8,358.8 C185.8,358.8,185.8,358.8,185.8,358.8c-0.1,0.3-0.2,0.5-0.2,0.7C185.6,359.3,185.7,359,185.8,358.8c0-0.1,0-0.1,0.1-0.1 C185.8,358.7,185.8,358.7,185.8,358.8z M204.8,303.9C204.8,303.9,204.8,303.9,204.8,303.9S204.8,303.9,204.8,303.9 C204.8,303.9,204.8,303.9,204.8,303.9C204.8,303.9,204.8,303.9,204.8,303.9z M190.9,343.5c-0.1,0.3-0.2,0.7-0.3,1 c0.1-0.2,0.1-0.4,0.2-0.6c0.1-0.2,0.2-0.5,0.2-0.7C191,343.3,190.9,343.4,190.9,343.5z M185.8,358.8 C185.8,358.8,185.8,358.8,185.8,358.8c-0.1,0.3-0.2,0.5-0.2,0.7C185.6,359.3,185.7,359,185.8,358.8c0-0.1,0-0.1,0.1-0.1 C185.8,358.7,185.8,358.7,185.8,358.8z M204.8,303.9C204.8,303.9,204.8,303.9,204.8,303.9S204.8,303.9,204.8,303.9 C204.8,303.9,204.8,303.9,204.8,303.9C204.8,303.9,204.8,303.9,204.8,303.9z M190.9,343.5c-0.1,0.3-0.2,0.7-0.3,1 c0.1-0.2,0.1-0.4,0.2-0.6c0.1-0.2,0.2-0.5,0.2-0.7C191,343.3,190.9,343.4,190.9,343.5z M185.8,358.8 C185.8,358.8,185.8,358.8,185.8,358.8c-0.1,0.3-0.2,0.5-0.2,0.7C185.6,359.3,185.7,359,185.8,358.8c0-0.1,0-0.1,0.1-0.1 C185.8,358.7,185.8,358.7,185.8,358.8z M183.7,364.8C183.7,364.9,183.7,364.9,183.7,364.8C183.7,364.9,183.7,364.9,183.7,364.8 C183.7,364.9,183.7,364.8,183.7,364.8C183.7,364.8,183.7,364.8,183.7,364.8z M204.8,303.9C204.8,303.9,204.8,303.9,204.8,303.9 S204.8,303.9,204.8,303.9C204.8,303.9,204.8,303.9,204.8,303.9C204.8,303.9,204.8,303.9,204.8,303.9z M190.9,343.5 c-0.1,0.3-0.2,0.7-0.3,1c0.1-0.2,0.1-0.4,0.2-0.6c0.1-0.2,0.2-0.5,0.2-0.7C191,343.3,190.9,343.4,190.9,343.5z M185.8,358.8 C185.8,358.8,185.8,358.8,185.8,358.8c-0.1,0.3-0.2,0.5-0.2,0.7C185.6,359.3,185.7,359,185.8,358.8c0-0.1,0-0.1,0.1-0.1 C185.8,358.7,185.8,358.7,185.8,358.8z M183.7,364.8C183.7,364.9,183.7,364.9,183.7,364.8C183.7,364.9,183.7,364.9,183.7,364.8 C183.7,364.9,183.7,364.8,183.7,364.8C183.7,364.8,183.7,364.8,183.7,364.8z M204.8,303.9C204.8,303.9,204.8,303.9,204.8,303.9 S204.8,303.9,204.8,303.9C204.8,303.9,204.8,303.9,204.8,303.9C204.8,303.9,204.8,303.9,204.8,303.9z M190.9,343.5 c-0.1,0.3-0.2,0.7-0.3,1c0.1-0.2,0.1-0.4,0.2-0.6c0.1-0.2,0.2-0.5,0.2-0.7C191,343.3,190.9,343.4,190.9,343.5z M185.8,358.8 C185.8,358.8,185.8,358.8,185.8,358.8c-0.1,0.3-0.2,0.5-0.2,0.7C185.6,359.3,185.7,359,185.8,358.8c0-0.1,0-0.1,0.1-0.1 C185.8,358.7,185.8,358.7,185.8,358.8z M183.7,364.8C183.7,364.9,183.7,364.9,183.7,364.8C183.7,364.9,183.7,364.9,183.7,364.8 C183.7,364.9,183.7,364.8,183.7,364.8C183.7,364.8,183.7,364.8,183.7,364.8z M204.8,303.9C204.8,303.9,204.8,303.9,204.8,303.9 S204.8,303.9,204.8,303.9C204.8,303.9,204.8,303.9,204.8,303.9C204.8,303.9,204.8,303.9,204.8,303.9z M190.9,343.5 c-0.1,0.3-0.2,0.7-0.3,1c0.1-0.2,0.1-0.4,0.2-0.6c0.1-0.2,0.2-0.5,0.2-0.7C191,343.3,190.9,343.4,190.9,343.5z M185.8,358.8 C185.8,358.8,185.8,358.8,185.8,358.8c-0.1,0.3-0.2,0.5-0.2,0.7C185.6,359.3,185.7,359,185.8,358.8c0-0.1,0-0.1,0.1-0.1 C185.8,358.7,185.8,358.7,185.8,358.8z M183.7,364.8C183.7,364.9,183.7,364.9,183.7,364.8C183.7,364.9,183.7,364.9,183.7,364.8 C183.7,364.9,183.7,364.8,183.7,364.8C183.7,364.8,183.7,364.8,183.7,364.8z M204.8,303.9C204.8,303.9,204.8,303.9,204.8,303.9 S204.8,303.9,204.8,303.9C204.8,303.9,204.8,303.9,204.8,303.9C204.8,303.9,204.8,303.9,204.8,303.9z M190.9,343.5 c-0.1,0.3-0.2,0.7-0.3,1c0.1-0.2,0.1-0.4,0.2-0.6c0.1-0.2,0.2-0.5,0.2-0.7C191,343.3,190.9,343.4,190.9,343.5z M185.8,358.8 C185.8,358.8,185.8,358.8,185.8,358.8c-0.1,0.3-0.2,0.5-0.2,0.7C185.6,359.3,185.7,359,185.8,358.8c0-0.1,0-0.1,0.1-0.1 C185.8,358.7,185.8,358.7,185.8,358.8z M183.7,364.8C183.7,364.9,183.7,364.9,183.7,364.8C183.7,364.9,183.7,364.9,183.7,364.8 C183.7,364.9,183.7,364.8,183.7,364.8C183.7,364.8,183.7,364.8,183.7,364.8z M204.8,303.9C204.8,303.9,204.8,303.9,204.8,303.9 S204.8,303.9,204.8,303.9C204.8,303.9,204.8,303.9,204.8,303.9C204.8,303.9,204.8,303.9,204.8,303.9z M190.9,343.5 c-0.1,0.3-0.2,0.7-0.3,1c0.1-0.2,0.1-0.4,0.2-0.6c0.1-0.2,0.2-0.5,0.2-0.7C191,343.3,190.9,343.4,190.9,343.5z M185.8,358.8 C185.8,358.8,185.8,358.8,185.8,358.8c-0.1,0.3-0.2,0.5-0.2,0.7C185.6,359.3,185.7,359,185.8,358.8c0-0.1,0-0.1,0.1-0.1 C185.8,358.7,185.8,358.7,185.8,358.8z M183.7,364.8C183.7,364.9,183.7,364.9,183.7,364.8C183.7,364.9,183.7,364.9,183.7,364.8 C183.7,364.9,183.7,364.8,183.7,364.8C183.7,364.8,183.7,364.8,183.7,364.8z M204.8,303.9C204.8,303.9,204.8,303.9,204.8,303.9 S204.8,303.9,204.8,303.9C204.8,303.9,204.8,303.9,204.8,303.9C204.8,303.9,204.8,303.9,204.8,303.9z M190.9,343.5 c-0.1,0.3-0.2,0.7-0.3,1c0.1-0.2,0.1-0.4,0.2-0.6c0.1-0.2,0.2-0.5,0.2-0.7C191,343.3,190.9,343.4,190.9,343.5z M185.8,358.8 C185.8,358.8,185.8,358.8,185.8,358.8c-0.1,0.3-0.2,0.5-0.2,0.7C185.6,359.3,185.7,359,185.8,358.8c0-0.1,0-0.1,0.1-0.1 C185.8,358.7,185.8,358.7,185.8,358.8z M183.7,364.8C183.7,364.9,183.7,364.9,183.7,364.8C183.7,364.9,183.7,364.9,183.7,364.8 C183.7,364.9,183.7,364.8,183.7,364.8C183.7,364.8,183.7,364.8,183.7,364.8z M204.8,303.9C204.8,303.9,204.8,303.9,204.8,303.9 S204.8,303.9,204.8,303.9C204.8,303.9,204.8,303.9,204.8,303.9C204.8,303.9,204.8,303.9,204.8,303.9z M190.9,343.5 c-0.1,0.3-0.2,0.7-0.3,1c0.1-0.2,0.1-0.4,0.2-0.6c0.1-0.2,0.2-0.5,0.2-0.7C191,343.3,190.9,343.4,190.9,343.5z M185.8,358.8 C185.8,358.8,185.8,358.8,185.8,358.8c-0.1,0.3-0.2,0.5-0.2,0.7C185.6,359.3,185.7,359,185.8,358.8c0-0.1,0-0.1,0.1-0.1 C185.8,358.7,185.8,358.7,185.8,358.8z M183.7,364.8C183.7,364.9,183.7,364.9,183.7,364.8C183.7,364.9,183.7,364.9,183.7,364.8 C183.7,364.9,183.7,364.8,183.7,364.8C183.7,364.8,183.7,364.8,183.7,364.8z M204.8,303.9C204.8,303.9,204.8,303.9,204.8,303.9 S204.8,303.9,204.8,303.9C204.8,303.9,204.8,303.9,204.8,303.9C204.8,303.9,204.8,303.9,204.8,303.9z M190.9,343.5 c-0.1,0.3-0.2,0.7-0.3,1c0.1-0.2,0.1-0.4,0.2-0.6c0.1-0.2,0.2-0.5,0.2-0.7C191,343.3,190.9,343.4,190.9,343.5z M185.8,358.8 C185.8,358.8,185.8,358.8,185.8,358.8c-0.1,0.3-0.2,0.5-0.2,0.7C185.6,359.3,185.7,359,185.8,358.8c0-0.1,0-0.1,0.1-0.1 C185.8,358.7,185.8,358.7,185.8,358.8z M183.7,364.8C183.7,364.9,183.7,364.9,183.7,364.8C183.7,364.9,183.7,364.9,183.7,364.8 C183.7,364.9,183.7,364.8,183.7,364.8C183.7,364.8,183.7,364.8,183.7,364.8z M204.8,303.9C204.8,303.9,204.8,303.9,204.8,303.9 S204.8,303.9,204.8,303.9C204.8,303.9,204.8,303.9,204.8,303.9C204.8,303.9,204.8,303.9,204.8,303.9z M190.9,343.5 c-0.1,0.3-0.2,0.7-0.3,1c0.1-0.2,0.1-0.4,0.2-0.6c0.1-0.2,0.2-0.5,0.2-0.7C191,343.3,190.9,343.4,190.9,343.5z M185.8,358.8 C185.8,358.8,185.8,358.8,185.8,358.8c-0.1,0.3-0.2,0.5-0.2,0.7C185.6,359.3,185.7,359,185.8,358.8c0-0.1,0-0.1,0.1-0.1 C185.8,358.7,185.8,358.7,185.8,358.8z M183.7,364.8C183.7,364.9,183.7,364.9,183.7,364.8C183.7,364.9,183.7,364.9,183.7,364.8 C183.7,364.9,183.7,364.8,183.7,364.8C183.7,364.8,183.7,364.8,183.7,364.8z M204.8,303.9C204.8,303.9,204.8,303.9,204.8,303.9 S204.8,303.9,204.8,303.9C204.8,303.9,204.8,303.9,204.8,303.9C204.8,303.9,204.8,303.9,204.8,303.9z M190.9,343.5 c-0.1,0.3-0.2,0.7-0.3,1c0.1-0.2,0.1-0.4,0.2-0.6c0.1-0.2,0.2-0.5,0.2-0.7C191,343.3,190.9,343.4,190.9,343.5z M185.8,358.8 C185.8,358.8,185.8,358.8,185.8,358.8c-0.1,0.3-0.2,0.5-0.2,0.7C185.6,359.3,185.7,359,185.8,358.8c0-0.1,0-0.1,0.1-0.1 C185.8,358.7,185.8,358.7,185.8,358.8z M183.7,364.8C183.7,364.9,183.7,364.9,183.7,364.8C183.7,364.9,183.7,364.9,183.7,364.8 C183.7,364.9,183.7,364.8,183.7,364.8C183.7,364.8,183.7,364.8,183.7,364.8z M204.8,303.9C204.8,303.9,204.8,303.9,204.8,303.9 S204.8,303.9,204.8,303.9C204.8,303.9,204.8,303.9,204.8,303.9C204.8,303.9,204.8,303.9,204.8,303.9z M190.9,343.5 c-0.1,0.3-0.2,0.7-0.3,1c0.1-0.2,0.1-0.4,0.2-0.6c0.1-0.2,0.2-0.5,0.2-0.7C191,343.3,190.9,343.4,190.9,343.5z M185.8,358.8 C185.8,358.8,185.8,358.8,185.8,358.8c-0.1,0.3-0.2,0.5-0.2,0.7C185.6,359.3,185.7,359,185.8,358.8c0-0.1,0-0.1,0.1-0.1 C185.8,358.7,185.8,358.7,185.8,358.8z M183.7,364.8C183.7,364.9,183.7,364.9,183.7,364.8C183.7,364.9,183.7,364.9,183.7,364.8 C183.7,364.9,183.7,364.8,183.7,364.8C183.7,364.8,183.7,364.8,183.7,364.8z M256,409.5L256,409.5c0.1-0.2,0.2-0.5,0.2-0.8 C256.2,408.9,256.1,409.2,256,409.5z M256.3,408.7c0.5-1.7,1-3.4,1.5-5.1c4.4-14.9,9-30.2,13.1-45 C264.4,379.5,257.9,401.2,256.3,408.7z M207.4,297.6c0,0.1-0.1,0.2-0.1,0.2l0.1,0C207.4,297.8,207.4,297.7,207.4,297.6z M204.8,303.9C204.8,303.9,204.8,303.9,204.8,303.9S204.8,303.9,204.8,303.9C204.8,303.9,204.8,303.9,204.8,303.9 C204.8,303.9,204.8,303.9,204.8,303.9z M190.9,343.5c-0.1,0.3-0.2,0.7-0.3,1c0.1-0.2,0.1-0.4,0.2-0.6c0.1-0.2,0.2-0.5,0.2-0.7 C191,343.3,190.9,343.4,190.9,343.5z M185.8,358.8C185.8,358.8,185.8,358.8,185.8,358.8c-0.1,0.3-0.2,0.5-0.2,0.7 C185.6,359.3,185.7,359,185.8,358.8c0-0.1,0-0.1,0.1-0.1C185.8,358.7,185.8,358.7,185.8,358.8z M183.7,364.8 C183.7,364.9,183.7,364.9,183.7,364.8C183.7,364.9,183.7,364.9,183.7,364.8C183.7,364.9,183.7,364.8,183.7,364.8 C183.7,364.8,183.7,364.8,183.7,364.8z M606.6,593.3c-10.9-26.6-43-70.2-65.3-98.8l0,0l-31-33.1 c22.5,55.1,17.8,123.5,13.7,185.1c-1.2,18-2.4,35.2-2.8,51.3h61.6C582.7,697.7,638.8,671.6,606.6,593.3z M342.1,599.9 c-9.9-1.9-19.8-4.2-29.4-6.5c-4.8-1.1-9.7-2.3-14.5-3.3c-8.4,8.8-16.5,18.3-21.9,24.9c-0.1,0.1-0.1,0.1-0.2,0.2 c-26.8,29-50.9,55.3-74,82.5h140.1C341.6,664.9,341.8,631.9,342.1,599.9z M483.1,432.9c-1.4-1.9-2.9-3.7-4.4-5.4l-2-2.1 c-11.5-11.8-26.6-19.2-44.2-21.6c-28.4-3.8-61,5.5-85.2,24.4c-45.7,34.8-65.6,92.4-73.3,123.7c-0.7,2.7-3.4,4.3-6.1,3.6 c-2.7-0.7-4.3-3.4-3.6-6.1c8.1-32.6,28.8-92.6,76.9-129.2c9.1-7.1,19.3-12.9,30-17.4c-11.6-12.9-21.2-6.4-36.8-9.5 c-19.9-4-43.1-23.3-45.5-44.9c-0.7-6.3-0.8-11.7-0.6-16.3c0-0.4,0-0.9,0.1-1.3c-0.1,0.4-0.2,0.8-0.3,1.2 c-5.5,23.4-13.2,49.3-20.7,74.3c-5,16.8-10.2,34.2-14.5,50.2l0,0.1c-0.7,2.3-1.4,4.7-2.1,7c-12.1,41.4-24.5,84-69.7,84 c-3.5,0-7.2-0.2-11.1-0.8c1.7,24.4,9.8,91.8,47.3,118.2c16.3-18.4,33.2-36.9,51.4-56.6c6-7.2,14.9-17.9,24.3-27.5 c1.2-1.2,2.9-1.7,4.6-1.4c5.7,1.2,11.6,2.6,17.3,4c8.9,2.1,18.1,4.3,27.2,6c0.1-13.8,0.2-27.9,0.2-41.8c0-2.8,2.2-5,5-5 c1.4,0,2.6,0.6,3.5,1.5c0.9,0.9,1.5,2.2,1.5,3.5c0,16.2-0.2,32.7-0.3,48.5c-0.2,33.1-0.5,67.4,0.1,101.3h158.9 c0.4-16.4,1.6-33.8,2.9-52C519,572.2,524.6,488.8,483.1,432.9z M183.7,364.8C183.7,364.9,183.7,364.9,183.7,364.8 C183.7,364.9,183.7,364.9,183.7,364.8C183.7,364.9,183.7,364.8,183.7,364.8C183.7,364.8,183.7,364.8,183.7,364.8z M185.8,358.8 C185.8,358.8,185.8,358.8,185.8,358.8c-0.1,0.3-0.2,0.5-0.2,0.7C185.6,359.3,185.7,359,185.8,358.8c0-0.1,0-0.1,0.1-0.1 C185.8,358.7,185.8,358.7,185.8,358.8z M190.9,343.5c-0.1,0.3-0.2,0.7-0.3,1c0.1-0.2,0.1-0.4,0.2-0.6c0.1-0.2,0.2-0.5,0.2-0.7 C191,343.3,190.9,343.4,190.9,343.5z M204.8,303.9C204.8,303.9,204.8,303.9,204.8,303.9S204.8,303.9,204.8,303.9 C204.8,303.9,204.8,303.9,204.8,303.9C204.8,303.9,204.8,303.9,204.8,303.9z M288.4,329.5c0,0.4,0,0.9-0.1,1.3 c0.1-0.4,0.2-0.9,0.3-1.3L288.4,329.5z M183.7,364.8C183.7,364.9,183.7,364.9,183.7,364.8C183.7,364.9,183.7,364.9,183.7,364.8 C183.7,364.9,183.7,364.8,183.7,364.8C183.7,364.8,183.7,364.8,183.7,364.8z M185.8,358.8C185.8,358.8,185.8,358.8,185.8,358.8 c-0.1,0.3-0.2,0.5-0.2,0.7C185.6,359.3,185.7,359,185.8,358.8c0-0.1,0-0.1,0.1-0.1C185.8,358.7,185.8,358.7,185.8,358.8z M190.9,343.5c-0.1,0.3-0.2,0.7-0.3,1c0.1-0.2,0.1-0.4,0.2-0.6c0.1-0.2,0.2-0.5,0.2-0.7C191,343.3,190.9,343.4,190.9,343.5z M204.8,303.9C204.8,303.9,204.8,303.9,204.8,303.9S204.8,303.9,204.8,303.9C204.8,303.9,204.8,303.9,204.8,303.9 C204.8,303.9,204.8,303.9,204.8,303.9z M183.7,364.8C183.7,364.9,183.7,364.9,183.7,364.8C183.7,364.9,183.7,364.9,183.7,364.8 C183.7,364.9,183.7,364.8,183.7,364.8C183.7,364.8,183.7,364.8,183.7,364.8z M185.8,358.8C185.8,358.8,185.8,358.8,185.8,358.8 c-0.1,0.3-0.2,0.5-0.2,0.7C185.6,359.3,185.7,359,185.8,358.8c0-0.1,0-0.1,0.1-0.1C185.8,358.7,185.8,358.7,185.8,358.8z M190.9,343.5c-0.1,0.3-0.2,0.7-0.3,1c0.1-0.2,0.1-0.4,0.2-0.6c0.1-0.2,0.2-0.5,0.2-0.7C191,343.3,190.9,343.4,190.9,343.5z M204.8,303.9C204.8,303.9,204.8,303.9,204.8,303.9S204.8,303.9,204.8,303.9C204.8,303.9,204.8,303.9,204.8,303.9 C204.8,303.9,204.8,303.9,204.8,303.9z M183.7,364.8C183.7,364.9,183.7,364.9,183.7,364.8C183.7,364.9,183.7,364.9,183.7,364.8 C183.7,364.9,183.7,364.8,183.7,364.8C183.7,364.8,183.7,364.8,183.7,364.8z M185.8,358.8C185.8,358.8,185.8,358.8,185.8,358.8 c-0.1,0.3-0.2,0.5-0.2,0.7C185.6,359.3,185.7,359,185.8,358.8c0-0.1,0-0.1,0.1-0.1C185.8,358.7,185.8,358.7,185.8,358.8z M190.9,343.5c-0.1,0.3-0.2,0.7-0.3,1c0.1-0.2,0.1-0.4,0.2-0.6c0.1-0.2,0.2-0.5,0.2-0.7C191,343.3,190.9,343.4,190.9,343.5z M204.8,303.9C204.8,303.9,204.8,303.9,204.8,303.9S204.8,303.9,204.8,303.9C204.8,303.9,204.8,303.9,204.8,303.9 C204.8,303.9,204.8,303.9,204.8,303.9z M183.7,364.8C183.7,364.9,183.7,364.9,183.7,364.8C183.7,364.9,183.7,364.9,183.7,364.8 C183.7,364.9,183.7,364.8,183.7,364.8C183.7,364.8,183.7,364.8,183.7,364.8z M185.8,358.8C185.8,358.8,185.8,358.8,185.8,358.8 c-0.1,0.3-0.2,0.5-0.2,0.7C185.6,359.3,185.7,359,185.8,358.8c0-0.1,0-0.1,0.1-0.1C185.8,358.7,185.8,358.7,185.8,358.8z M190.9,343.5c-0.1,0.3-0.2,0.7-0.3,1c0.1-0.2,0.1-0.4,0.2-0.6c0.1-0.2,0.2-0.5,0.2-0.7C191,343.3,190.9,343.4,190.9,343.5z M204.8,303.9C204.8,303.9,204.8,303.9,204.8,303.9S204.8,303.9,204.8,303.9C204.8,303.9,204.8,303.9,204.8,303.9 C204.8,303.9,204.8,303.9,204.8,303.9z M183.7,364.8C183.7,364.9,183.7,364.9,183.7,364.8C183.7,364.9,183.7,364.9,183.7,364.8 C183.7,364.9,183.7,364.8,183.7,364.8C183.7,364.8,183.7,364.8,183.7,364.8z M185.8,358.8C185.8,358.8,185.8,358.8,185.8,358.8 c-0.1,0.3-0.2,0.5-0.2,0.7C185.6,359.3,185.7,359,185.8,358.8c0-0.1,0-0.1,0.1-0.1C185.8,358.7,185.8,358.7,185.8,358.8z M190.9,343.5c-0.1,0.3-0.2,0.7-0.3,1c0.1-0.2,0.1-0.4,0.2-0.6c0.1-0.2,0.2-0.5,0.2-0.7C191,343.3,190.9,343.4,190.9,343.5z M204.8,303.9C204.8,303.9,204.8,303.9,204.8,303.9S204.8,303.9,204.8,303.9C204.8,303.9,204.8,303.9,204.8,303.9 C204.8,303.9,204.8,303.9,204.8,303.9z M183.7,364.8C183.7,364.9,183.7,364.9,183.7,364.8C183.7,364.9,183.7,364.9,183.7,364.8 C183.7,364.9,183.7,364.8,183.7,364.8C183.7,364.8,183.7,364.8,183.7,364.8z M185.8,358.8C185.8,358.8,185.8,358.8,185.8,358.8 c-0.1,0.3-0.2,0.5-0.2,0.7C185.6,359.3,185.7,359,185.8,358.8c0-0.1,0-0.1,0.1-0.1C185.8,358.7,185.8,358.7,185.8,358.8z M190.9,343.5c-0.1,0.3-0.2,0.7-0.3,1c0.1-0.2,0.1-0.4,0.2-0.6c0.1-0.2,0.2-0.5,0.2-0.7C191,343.3,190.9,343.4,190.9,343.5z M204.8,303.9C204.8,303.9,204.8,303.9,204.8,303.9S204.8,303.9,204.8,303.9C204.8,303.9,204.8,303.9,204.8,303.9 C204.8,303.9,204.8,303.9,204.8,303.9z M183.7,364.8C183.7,364.9,183.7,364.9,183.7,364.8C183.7,364.9,183.7,364.9,183.7,364.8 C183.7,364.9,183.7,364.8,183.7,364.8C183.7,364.8,183.7,364.8,183.7,364.8z M185.8,358.8C185.8,358.8,185.8,358.8,185.8,358.8 c-0.1,0.3-0.2,0.5-0.2,0.7C185.6,359.3,185.7,359,185.8,358.8c0-0.1,0-0.1,0.1-0.1C185.8,358.7,185.8,358.7,185.8,358.8z M190.9,343.5c-0.1,0.3-0.2,0.7-0.3,1c0.1-0.2,0.1-0.4,0.2-0.6c0.1-0.2,0.2-0.5,0.2-0.7C191,343.3,190.9,343.4,190.9,343.5z M204.8,303.9C204.8,303.9,204.8,303.9,204.8,303.9S204.8,303.9,204.8,303.9C204.8,303.9,204.8,303.9,204.8,303.9 C204.8,303.9,204.8,303.9,204.8,303.9z M183.7,364.8C183.7,364.9,183.7,364.9,183.7,364.8C183.7,364.9,183.7,364.9,183.7,364.8 C183.7,364.9,183.7,364.8,183.7,364.8C183.7,364.8,183.7,364.8,183.7,364.8z M185.8,358.8C185.8,358.8,185.8,358.8,185.8,358.8 c-0.1,0.3-0.2,0.5-0.2,0.7C185.6,359.3,185.7,359,185.8,358.8c0-0.1,0-0.1,0.1-0.1C185.8,358.7,185.8,358.7,185.8,358.8z M190.9,343.5c-0.1,0.3-0.2,0.7-0.3,1c0.1-0.2,0.1-0.4,0.2-0.6c0.1-0.2,0.2-0.5,0.2-0.7C191,343.3,190.9,343.4,190.9,343.5z M204.8,303.9C204.8,303.9,204.8,303.9,204.8,303.9S204.8,303.9,204.8,303.9C204.8,303.9,204.8,303.9,204.8,303.9 C204.8,303.9,204.8,303.9,204.8,303.9z M183.7,364.8C183.7,364.9,183.7,364.9,183.7,364.8C183.7,364.9,183.7,364.9,183.7,364.8 C183.7,364.9,183.7,364.8,183.7,364.8C183.7,364.8,183.7,364.8,183.7,364.8z M185.8,358.8C185.8,358.8,185.8,358.8,185.8,358.8 c-0.1,0.3-0.2,0.5-0.2,0.7C185.6,359.3,185.7,359,185.8,358.8c0-0.1,0-0.1,0.1-0.1C185.8,358.7,185.8,358.7,185.8,358.8z M190.9,343.5c-0.1,0.3-0.2,0.7-0.3,1c0.1-0.2,0.1-0.4,0.2-0.6c0.1-0.2,0.2-0.5,0.2-0.7C191,343.3,190.9,343.4,190.9,343.5z M204.8,303.9C204.8,303.9,204.8,303.9,204.8,303.9S204.8,303.9,204.8,303.9C204.8,303.9,204.8,303.9,204.8,303.9 C204.8,303.9,204.8,303.9,204.8,303.9z M183.7,364.8C183.7,364.9,183.7,364.9,183.7,364.8C183.7,364.9,183.7,364.9,183.7,364.8 C183.7,364.9,183.7,364.8,183.7,364.8C183.7,364.8,183.7,364.8,183.7,364.8z M185.8,358.8C185.8,358.8,185.8,358.8,185.8,358.8 c-0.1,0.3-0.2,0.5-0.2,0.7C185.6,359.3,185.7,359,185.8,358.8c0-0.1,0-0.1,0.1-0.1C185.8,358.7,185.8,358.7,185.8,358.8z M190.9,343.5c-0.1,0.3-0.2,0.7-0.3,1c0.1-0.2,0.1-0.4,0.2-0.6c0.1-0.2,0.2-0.5,0.2-0.7C191,343.3,190.9,343.4,190.9,343.5z M204.8,303.9C204.8,303.9,204.8,303.9,204.8,303.9S204.8,303.9,204.8,303.9C204.8,303.9,204.8,303.9,204.8,303.9 C204.8,303.9,204.8,303.9,204.8,303.9z M183.7,364.8C183.7,364.9,183.7,364.9,183.7,364.8C183.7,364.9,183.7,364.9,183.7,364.8 C183.7,364.9,183.7,364.8,183.7,364.8C183.7,364.8,183.7,364.8,183.7,364.8z M185.8,358.8C185.8,358.8,185.8,358.8,185.8,358.8 c-0.1,0.3-0.2,0.5-0.2,0.7C185.6,359.3,185.7,359,185.8,358.8c0-0.1,0-0.1,0.1-0.1C185.8,358.7,185.8,358.7,185.8,358.8z M190.9,343.5c-0.1,0.3-0.2,0.7-0.3,1c0.1-0.2,0.1-0.4,0.2-0.6c0.1-0.2,0.2-0.5,0.2-0.7C191,343.3,190.9,343.4,190.9,343.5z M204.8,303.9C204.8,303.9,204.8,303.9,204.8,303.9S204.8,303.9,204.8,303.9C204.8,303.9,204.8,303.9,204.8,303.9 C204.8,303.9,204.8,303.9,204.8,303.9z M185.8,358.8C185.8,358.8,185.8,358.8,185.8,358.8c-0.1,0.3-0.2,0.5-0.2,0.7 C185.6,359.3,185.7,359,185.8,358.8c0-0.1,0-0.1,0.1-0.1C185.8,358.7,185.8,358.7,185.8,358.8z M190.9,343.5 c-0.1,0.3-0.2,0.7-0.3,1c0.1-0.2,0.1-0.4,0.2-0.6c0.1-0.2,0.2-0.5,0.2-0.7C191,343.3,190.9,343.4,190.9,343.5z M204.8,303.9 C204.8,303.9,204.8,303.9,204.8,303.9S204.8,303.9,204.8,303.9C204.8,303.9,204.8,303.9,204.8,303.9 C204.8,303.9,204.8,303.9,204.8,303.9z M185.8,358.8C185.8,358.8,185.8,358.8,185.8,358.8c-0.1,0.3-0.2,0.5-0.2,0.7 C185.6,359.3,185.7,359,185.8,358.8c0-0.1,0-0.1,0.1-0.1C185.8,358.7,185.8,358.7,185.8,358.8z M190.9,343.5 c-0.1,0.3-0.2,0.7-0.3,1c0.1-0.2,0.1-0.4,0.2-0.6c0.1-0.2,0.2-0.5,0.2-0.7C191,343.3,190.9,343.4,190.9,343.5z M204.8,303.9 C204.8,303.9,204.8,303.9,204.8,303.9S204.8,303.9,204.8,303.9C204.8,303.9,204.8,303.9,204.8,303.9 C204.8,303.9,204.8,303.9,204.8,303.9z M185.8,358.8C185.8,358.8,185.8,358.8,185.8,358.8c-0.1,0.3-0.2,0.5-0.2,0.7 C185.6,359.3,185.7,359,185.8,358.8c0-0.1,0-0.1,0.1-0.1C185.8,358.7,185.8,358.7,185.8,358.8z M190.9,343.5 c-0.1,0.3-0.2,0.7-0.3,1c0.1-0.2,0.1-0.4,0.2-0.6c0.1-0.2,0.2-0.5,0.2-0.7C191,343.3,190.9,343.4,190.9,343.5z M204.8,303.9 C204.8,303.9,204.8,303.9,204.8,303.9S204.8,303.9,204.8,303.9C204.8,303.9,204.8,303.9,204.8,303.9 C204.8,303.9,204.8,303.9,204.8,303.9z M185.8,358.8C185.8,358.8,185.8,358.8,185.8,358.8c-0.1,0.3-0.2,0.5-0.2,0.7 C185.6,359.3,185.7,359,185.8,358.8c0-0.1,0-0.1,0.1-0.1C185.8,358.7,185.8,358.7,185.8,358.8z M190.9,343.5 c-0.1,0.3-0.2,0.7-0.3,1c0.1-0.2,0.1-0.4,0.2-0.6c0.1-0.2,0.2-0.5,0.2-0.7C191,343.3,190.9,343.4,190.9,343.5z"></path> </g> <g> <path class="st0" d="M432.2,377.7c-5.3,7.8-14.2,13-24.3,13c-16.2,0-29.2-13.1-29.2-29.2c0-0.8,0-1.6,0.1-2.4 C397.5,366,415.2,372.1,432.2,377.7z"></path> </g> <g> <path class="st0" d="M418.5,360.7c0.3,0.1,0.5,0.2,0.8,0.3c5,1.7,10.1,3.4,15.3,4.9c0.7,0.2,1.4,0.4,2.1,0.6 c-0.4,2.6-1.2,5-2.3,7.3l-0.1,0.3l-1.5-0.5c0,0,0,0,0,0.1c-12.8-4.2-26.2-8.8-40-13.8c-4.3-1.6-8.7-3.1-13.1-4.8 c0.5-1.9,1.3-4.7,2.3-7.1c0.4,0.1,0.9,0.3,1.3,0.4c7.4,2.4,15,5.1,22.1,7.6c0.2,0.1,0.5,0.2,0.7,0.2l1.1,0.4L418.5,360.7z"></path> <path class="st0" d="M383.2,348.5c-0.4-0.2-0.9-0.3-1.3-0.4v0c0,0,0,0,0,0c0.1-0.3,0.2-0.6,0.4-0.9c-0.1,0.3-0.2,0.6-0.4,0.9 C382.3,348.2,382.8,348.3,383.2,348.5z"></path> <path class="st0" d="M436.8,362.4c-0.1,0-0.2,0-0.3-0.1c0-0.1,0-0.2,0-0.3h0L436.8,362.4z"></path> </g> <g> <path class="st0" d="M436.5,362.3c-6-1.8-11.9-3.8-17.8-5.8c-2.6-0.9-5.1-1.8-7.7-2.7c-1.3-0.4-2.5-0.9-3.8-1.3 c-4-1.4-8.1-2.9-12.2-4.3c-3.8-1.3-7.6-2.6-11.4-3.8c0.6-0.7,1.2-1.4,1.9-2.1c1.1-1.2,2.4-2.3,3.7-3.3l0,0 c5.3-4,12-6.8,18.6-6.8c6.8,0,13,2.9,17.9,7.4c6.1,5.6,10.1,13.9,10.7,22.3C436.5,362.1,436.5,362.2,436.5,362.3z"></path> <path class="st0" d="M387.6,345.7l-4-1.3c0,0,0,0,0,0C384.9,344.8,386.3,345.3,387.6,345.7z"></path> </g> <g> <path class="st0" d="M212.6,285.9c-1.4,0.7-2.6,1.7-3.8,2.9c-2.9-1-5.7-2-8.6-3.1h0c-3.5-1.2-7-2.5-10.5-3.8 c-1-0.4-1.6-1.5-1.2-2.6s1.5-1.6,2.6-1.2c3.4,1.2,6.8,2.4,10.2,3.6C205,283.2,208.8,284.6,212.6,285.9z"></path> <path class="st0" d="M383.6,344.4c0,0.1-0.1,0.2-0.2,0.3c0,0.1-0.1,0.2-0.1,0.3c-0.1,0.1-0.2,0.3-0.2,0.4 c-0.1,0.2-0.2,0.5-0.3,0.7c-0.1,0.1-0.1,0.2-0.1,0.3c-0.1,0.2-0.2,0.5-0.3,0.8c-0.1,0.3-0.2,0.6-0.4,0.9 c-20.3-7-40.6-13.8-60.5-20.6c0,0-0.1,0-0.1,0c-10.3-3.5-20.7-7-31.2-10.5c-0.5-0.2-1.1-0.4-1.6-0.6c0.3-1.4,0.6-2.7,0.8-4 c0.8,0.3,1.7,0.6,2.5,0.9c10.3,3.5,20.6,7,30.8,10.4c0,0,0,0,0,0C342.8,330.5,363.1,337.4,383.6,344.4z"></path> <path class="st0" d="M381.9,348c0.1-0.3,0.2-0.6,0.4-0.9C382.2,347.4,382,347.7,381.9,348L381.9,348z"></path> <path class="st0" d="M387.6,345.7l-4-1.3c0,0.1-0.1,0.1-0.2,0.2c0-0.1,0.1-0.2,0.2-0.3c0,0,0,0,0,0 C384.9,344.8,386.3,345.3,387.6,345.7z"></path> </g> <g> <path class="st0" d="M379.6,355.2c-0.2,0.6-0.4,1.2-0.5,1.8c-0.2,0.7-0.3,1.4-0.4,2.1c-20.6-7-41-13.9-61.2-20.9 c-10.2-3.5-20.3-6.9-30.4-10.4c-0.5-0.2-1.1-0.4-1.6-0.5c0.4-1.5,0.8-2.8,1.1-3.9c0.4,0.2,0.9,0.3,1.3,0.5 c10.3,3.5,20.6,7.1,30.9,10.6C338.9,341.3,359.1,348.2,379.6,355.2z"></path> <path class="st0" d="M204.4,294.8c-0.7,1.1-1.3,2.3-1.9,3.6c-2.3-0.8-4.6-1.6-6.9-2.4c-2.9-1-5.8-2-8.7-3.1 c-1-0.4-1.6-1.5-1.2-2.6s1.5-1.6,2.5-1.2c3.1,1.1,6.2,2.2,9.3,3.3C199.9,293.2,202.1,294,204.4,294.8z"></path> </g> <g> <path class="st0" d="M573.1,466c-4.1,15.5-20.4,21.1-34.8,19.4l-54.1-57.8c-0.6-0.6-1.1-1.3-1.7-1.9c-0.3-0.3-0.6-0.6-0.9-0.9 l-0.8-0.8l0,0c-3.2-3.2-6.7-6.1-10.3-8.7c-7.8-5.5-16.6-9.6-26.3-12.3c0-0.7,0.2-1.5,0.6-2.3c3.5-6.5,18.1,2,20.3-3 c2.2-4.9-16.9-5.6-12.2-13.5c4.5-7.7,16.8,4.7,19.6-0.9c2.1-4.3-14.8-6.9-11.4-13.2c4.9-9.2,18.4,3.7,21.1-2.3 c1.8-4-13.9-7.2-11.1-13.4c1.2-2.8,3.6-4,6.7-4.1h0c1.8-0.1,3.9,0.2,6.2,0.8c3.1,0.7,6.6,1.9,10.3,3.2 c4.1,1.4,12.6,4.5,21.8,7.9c0,0,0,0,0.1,0c0,0,0,0,0,0l9.2,2.8c0.5,0.2,1,0.2,1.5,0.2c2.1,0,4.1-1.4,4.8-3.5 c0.8-2.6-0.7-5.4-3.3-6.2L481.3,341c-0.1-0.2-0.1-0.3-0.2-0.5c-9.3-24.8-30.2-40-45.6-42.2c-9.9-1.5-17.9,1.9-27.1,4.3 c-16,4.1-16.1-0.7-40.3-15.5c-17.5-10.7-47.3-10.2-61.5,5.3c-3.4,3.8-6.2,7.3-8.5,10.6l-96.3-34.6h0c-1-5.1-3.4-8.8-7.1-10.2 c-7.6-2.7-17.8,6-22.6,19.5c-4.8,13.5-2.6,26.7,5.1,29.4c3.7,1.3,8,0,11.9-3.3l5.5,2l-0.6,1.7c-22,61.4-35,97.9-38.8,108.6 c-0.9,2.6,0.4,5.5,3,6.4c0.6,0.2,1.1,0.3,1.7,0.3c2.1,0,4-1.3,4.7-3.3c2.2-6.1,7.4-20.7,15.5-43.5c0,0,0,0,0.1-0.1 c0-0.1,0-0.1,0.1-0.2s0.1-0.2,0.1-0.2v0c0-0.1,0.1-0.2,0.1-0.3c0.1-0.4,0.3-0.8,0.4-1.4c0-0.1,0.1-0.2,0.1-0.3 c0-0.1,0.1-0.2,0.1-0.2c0,0,0,0,0,0c0.1-0.3,0.2-0.5,0.3-0.8c0-0.1,0.1-0.2,0.1-0.4c0-0.1,0-0.2,0.1-0.3c0-0.1,0.1-0.3,0.1-0.4 c0,0,0,0,0,0c0,0,0-0.1,0-0.1c0.1-0.2,0.2-0.5,0.2-0.7c0.1-0.1,0.1-0.3,0.1-0.4c0-0.1,0.1-0.2,0.1-0.3c0.1-0.2,0.1-0.4,0.2-0.6 c0-0.1,0.1-0.2,0.1-0.3c0-0.1,0-0.1,0.1-0.2c0.1-0.4,0.3-0.8,0.4-1.3c0.2-0.5,0.3-1,0.5-1.5c0.1-0.2,0.2-0.5,0.3-0.8 c0,0,0-0.1,0-0.1c0-0.1,0-0.1,0.1-0.2c0.1-0.3,0.2-0.5,0.3-0.8c0.1-0.3,0.2-0.7,0.4-1.1c0.1-0.5,0.3-0.9,0.5-1.4 c0.1-0.3,0.2-0.5,0.3-0.8c0-0.1,0-0.1,0.1-0.2c0.1-0.2,0.1-0.3,0.2-0.5c0.2-0.7,0.5-1.4,0.7-2.1c0.2-0.7,0.4-1.3,0.7-2 c0.3-0.8,0.6-1.7,0.9-2.5c0.1-0.4,0.3-0.8,0.4-1.3c0.1-0.4,0.3-0.9,0.4-1.3c0.1-0.2,0.1-0.4,0.2-0.6c0.1-0.2,0.2-0.5,0.2-0.7 c0.2-0.7,0.4-1.3,0.7-2c0.1-0.5,0.3-0.9,0.5-1.4c0.7-2,1.4-4.1,2.1-6.1c0.1-0.5,0.3-0.9,0.5-1.3c0.2-0.7,0.5-1.5,0.7-2.2 c0.1-0.3,0.2-0.6,0.3-0.9c0.1-0.2,0.1-0.3,0.2-0.5c0.1-0.2,0.1-0.3,0.2-0.5c0.5-1.3,0.9-2.7,1.4-3.9c0.2-0.6,0.4-1.1,0.6-1.7 c0.1-0.2,0.2-0.5,0.3-0.7c0.3-0.8,0.5-1.6,0.8-2.3c0.1-0.2,0.1-0.4,0.2-0.5c0.1-0.2,0.2-0.5,0.2-0.7c0.6-1.6,1.1-3.2,1.7-4.7 c0-0.1,0.1-0.1,0.1-0.2c0,0,0-0.1,0-0.1v0c0,0,0,0,0,0c0-0.1,0-0.1,0.1-0.2c0-0.1,0.1-0.2,0.1-0.3c0-0.1,0.1-0.3,0.1-0.4 c0.1-0.3,0.2-0.6,0.3-0.8c0.1-0.4,0.3-0.8,0.4-1.2l0.2-0.6c0.1-0.1,0.1-0.3,0.1-0.4c0.1-0.4,0.2-0.7,0.4-1 c0.1-0.2,0.2-0.5,0.2-0.7c0.1-0.3,0.2-0.6,0.3-0.9c0,0,0-0.1,0-0.1c0.1-0.1,0.1-0.2,0.1-0.3c0.1-0.1,0.1-0.3,0.2-0.4 c0.3-0.8,0.6-1.5,0.8-2.2c0,0,0,0,0,0c0,0,0,0,0,0c0.1-0.2,0.2-0.4,0.2-0.6c0.1-0.3,0.2-0.5,0.3-0.8c0.7-1.6,1.3-3.1,1.9-4.6 l0.1,0c0-0.1,0-0.2,0-0.3c0.6-1.5,1.3-2.9,1.9-4.2c0.6-1.3,1.3-2.5,1.9-3.6c1.5-2.6,3.2-4.6,5-5.8c1.9-1.2,4-1.6,6.5-0.9 c2,0.6,2.8,2.2,3,4.2c0.2,2.1-0.2,4.8-0.7,7.3c-0.2,1.4-0.5,2.8-0.6,4c-0.2,2.2,0,3.8,1.4,4.2c1.9,0.6,3.2-0.5,4.3-2.2 c0.6-1,1.2-2.3,1.8-3.6c0.9-2.1,1.9-4.5,3.1-6.5c0.8-1.3,1.7-2.4,2.8-3.2c1.5-1.1,3.4-1.6,5.9-1c2.2,0.5,3,2.1,3.2,4.2 c0.1,1.2-0.1,2.7-0.3,4.1c-0.4,2.4-1.1,5-1.4,7.1c-0.3,2.3-0.2,4.2,1.4,4.6c2,0.5,3.3-0.6,4.3-2.6c1-1.8,1.8-4.2,2.8-6.6 c0.5-1.3,1.1-2.5,1.8-3.6c1.5-2.5,3.6-4.1,6.8-3.5c4,0.8,4.4,3.7,3.8,7.1c-0.2,1.3-0.6,2.6-1,3.9c-0.8,2.6-1.7,5.1-1.8,7 c-0.1,1.4,0.3,2.5,1.5,2.9c1.2,0.4,2.4-0.1,3.5-1.1c1.5-1.4,2.9-3.7,4.4-6.1c0.7-1.2,1.5-2.4,2.3-3.5c2.2-3.1,4.7-5.4,7.8-4.6 c3.8,0.9,4.8,4,4.3,8.8c-0.1,1.2-0.4,2.6-0.7,4c-0.3,1.4-0.8,2.9-1.2,4.5c-0.2,0.6-0.4,1.4-0.8,2.5c-0.3,1.1-0.7,2.3-1.2,3.8 c-0.5,1.6-1.1,3.4-1.7,5.4c-0.3,1-0.7,2.1-1,3.2c-0.2,0.5-0.3,1-0.5,1.5c-2.6,8.3-5.8,18.7-9.1,29.3c0,0,0,0.1,0,0.1 c-6.4,20.9-12.9,42.6-14.6,50.1c0,0,0,0,0,0c-0.1,0.3-0.2,0.5-0.2,0.8c-4.5,15-9,30.2-12.8,44.4c-0.7,2.3-1.4,4.6-2,7 c-7.1,24.1-13.7,46.9-26,61.4c-11.2,13.2-26.2,17.8-46.8,14.3c0,0,0,0,0,0c-59.4-20.9-40.2-165.5-4.3-260.5 c29.7-78.6,112.3-85.9,143.2-85.8c-3.9-7.1-5.2-15.7-4-23.7c1.8-11.7,8.6-22.3,17.7-29.9c12.7-10.6,30.1-15.7,46.4-12.6 c16.2,3.2,30.8,14.9,36.4,30.4c5.4,14.9,2,32.7-8.9,44.1c55.8,5.2,95.7,36.6,103.3,48.8C503.8,266.3,595.2,381.6,573.1,466z"></path> <path class="st0" d="M482.2,425.7C482.2,425.7,482.2,425.7,482.2,425.7l-0.9-0.9C481.6,425.1,482,425.4,482.2,425.7z"></path> </g> </g> </g> </g> </svg> 
