<?xml version="1.0" encoding="UTF-8"?> <svg xmlns="http://www.w3.org/2000/svg" xmlns:xlink="http://www.w3.org/1999/xlink" version="1.1" x="0px" y="0px" viewBox="0 0 705.8 704.9" style="enable-background:new 0 0 705.8 704.9;" xml:space="preserve"> <style type="text/css"> .st0{fill:#FFFFFF;} .st1{fill:#606060;} </style> <g id="Layer_1"> </g> <g id="Konst"> </g> <g id="Teater"> </g> <g id="Museum"> <g> <g> <g> <path class="st0" d="M323.9,132.6c-0.1,0.3-0.1,0.6-0.2,0.9c0,0,0,0.1,0,0.1c-0.4,2-0.6,4-0.7,6c0-1.3,0.1-2.6,0.3-3.9 c0-0.2,0.1-0.4,0.1-0.6C323.5,134.2,323.7,133.4,323.9,132.6C323.9,132.6,323.9,132.6,323.9,132.6 C323.9,132.6,323.9,132.6,323.9,132.6z"></path> <path class="st0" d="M407,139.7c0-0.7-0.1-1.5-0.2-2.2c0,0,0-0.1,0-0.1c0,0,0,0.1,0,0.1c0,0,0,0,0,0c0,0.1,0,0.2,0,0.4 c0,0.1,0,0.1,0,0.2c0,0.1,0,0.1,0,0.2c0,0,0,0,0,0C406.9,138.7,407,139.2,407,139.7z"></path> </g> <g> <path class="st0" d="M480.2,198.8l3-1.9C482.1,197.5,481.1,198.1,480.2,198.8z M545.3,188.4c-1,0-2.1,0.1-3.1,0.4 c-9.1,2-16.2,4.3-23.4,7.6c1.1,0.9,2.1,1.8,3.1,2.9c3.6,3.6,6.3,7.5,8.1,11.6c10.9-4.9,21.3-9.3,29.3-12.7 C556.7,192.4,551.3,188.4,545.3,188.4z M510.1,211c-4-3.9-8-5.9-12.2-5.9c-4.8,0-9.4,1.9-12.8,5.3c-2.9,2.9-4.3,7.1-4.3,12.8 c0,3.9,0.8,7.1,2.6,9.8c9.2-4.9,20.3-10.2,31.4-15.4C513.9,215.4,512.3,213.2,510.1,211z M457.8,346.5c-0.2,0-0.4,0-0.6,0 c-1.3,0-3,0.6-4.3,1.1c-14.1,5.4-27.8,18.5-26.6,33.2c0.1,1.5,0.4,1.9,0.4,2c0.1,0.1,1,0.6,2.8,0.6c1,0,2.1-0.1,3.2-0.4 c0.7-0.2,1.5-0.3,2.2-0.5c2.8-0.7,6-1.4,9.4-1.4c2.6,0,5,0.5,7.2,1.4c4.5,1.9,7.8,5.8,9.1,10.7l0.6-44.7 C460.1,347.7,458.7,346.7,457.8,346.5z M453.1,412.6c-4.5,2.5-9.3,2.5-13.2,2.5c-2.7,0-5.4,0-6.5,0.9c-2,1.6-1,8.3-0.6,10.5 c1.8,11.5-0.6,19.5-7.1,23.8c-2.5,1.7-5.6,2.5-8.8,2.5c-4.4,0-8.2-1.5-10.7-2.8c-2.4-1.3-4.6-2.6-6.7-3.9 c-4.9-2.9-9.1-5.5-14.6-6.7c-4.7-1-9.6-1.5-14.7-2.1c-3.8-0.4-7.8-0.8-11.7-1.4c-33.4-5.5-68-12.4-100.9-24.8 c-14.1,26.5-132.2,188-132.2,188l74.4,70.7l153.8-197.1l2.4,232.2h100.5l4-301.4C459.2,407.4,456.6,410.7,453.1,412.6z M647.8,152.2c-2.2-6.4-15.8,2-17.2-2.2c-2.1-6.2,16.5-5.9,13.9-16c-1.8-7-15.9,2.7-17.3-1.9c-1.9-6,15.6-5.3,13.7-14 c-2-9-16.4,3.4-18.1-1.6c-1.8-5.2,14.7-8.9,12.8-16c-1.3-4.9-6.9-4.3-15-1.5c-6.9,2.4-51.2,19.2-73.7,27.6 c15.9,18.8,26.6,41.4,34.5,62.3c12.6-5.3,41.1-17.1,49.6-20.9C641.6,163.3,650.2,159.1,647.8,152.2z M513.8,198.7L513.8,198.7 c-1.1-0.8-2.2-1.6-3.3-2.3c0,0-0.1,0-0.1,0C511.6,197.2,512.7,197.9,513.8,198.7c0.8,0.6,1.5,1.2,2.2,1.8 C515.3,199.9,514.5,199.3,513.8,198.7z"></path> </g> <g> <g> <path class="st0" d="M520.5,376.7c-7.9-11.3-17.5-21.8-22.9-34.5c-1.7-4-3-8.4-2.3-12.7c1.2-7.5,7.9-12.7,13.2-18.2 c7.7-8,13.3-18.7,12.6-29.8c-0.3-5.2-3.4-11.4-8.6-11.4c-0.1,0-0.1,0-0.1,0c-1.7,0-3.4,0.8-4.9,1.7 c-14.5,8.3-19.9,26.2-30,39.5c-2.7,3.5-6.9,7-11,7c-1.2,0-2.3-0.3-3.4-0.9c-0.6-0.3-1.1-0.8-1.6-1.2c-2.9-3.1-2.6-8.5-1.1-12.8 c0.4-1.1,0.8-2.2,1.3-3.3c4.5-10,12.5-18.1,17.3-28.1c1.7-3.4,2.7-8.2-0.3-10.6c-1.1-0.9-2.4-1.2-3.8-1.2 c-1.5,0-3.1,0.4-4.4,0.9c-3.1,1.2-5.9,2.9-8.4,5c-5.1,4.2-9.1,9.9-12.3,15.7c-4.8,8.7-8.4,18.2-14.1,26.4 c-8.7,12.5-22.1,21.3-36.3,26.9c-19.2,7.7-40.1,11.6-61,11.6c-6.8,0-13.5-0.4-20.2-1.2c-16.7-2.1-39.9-6.6-56.9-16.7 c-6.1-3.9-16.3-15.4-19.6-21c-12.1-20.1-9.8-43.8-3.5-71.4c-13.2-6.2-29.7-13.8-42.9-19.8l0,0c-0.6-0.2-1.4-0.4-2.3-0.7 c-4.7-1.3-5-0.4-9.7-1.7c-4.7-1.3-4.6-1.7-9.3-3c-2.7-0.8-4.4-3-5.6-5.2c-0.4-0.8-0.8-1.6-1-2.4c-2.1-1.1-4.4-2.3-6.9-3.6 c-8.1,20.7-12.4,43.1-12.7,63.7c-0.8,48.8,14.8,86.6,64.9,117.9c14.8,9.2,30.4,16.7,46.5,22.8c32.1,12.2,66.3,19.2,100.3,24.7 c8.9,1.5,17.9,1.7,26.7,3.6c9.3,2,15.1,6.9,23.2,11.2c2.2,1.2,4.9,2,7.4,2c1.8,0,3.5-0.4,5-1.4c5.1-3.3,4.9-10.8,3.9-16.8 c-0.9-6-1.6-13.3,3.2-17.1c5.6-4.4,14.4-0.6,20.7-4c1-0.5,1.8-1.3,2.5-2.1c0,0,0,0,0,0c2.7-3.5,2.7-9.2,0-12.8c0,0,0,0,0,0 c-0.9-1.2-2-2.1-3.4-2.7c-1.5-0.6-3-0.8-4.5-0.8c-3.3,0-6.8,1.1-10.1,1.8c-1.5,0.3-3.1,0.5-4.7,0.5c-3.6,0-7-1-8.8-3.9 c-0.9-1.5-1.2-3.3-1.4-5.1c-1.4-18.1,14.1-33.8,31.1-40.2c2.2-0.8,4.5-1.6,6.8-1.6c0.7,0,1.3,0.1,2,0.2 c0.7,0.1,1.4,0.4,2.1,0.7c1.5,0.7,2.9,1.6,4.2,2.6c6.2,4.4,12.3,9.4,16.3,15.9c5.8,9.5,6.4,21.2,7.1,32.3 c0.7,11.1,1.9,22.9,8.6,31.8c4.3,5.8,11.8,9.6,18.8,9.6c3.8,0,7.5-1.1,10.4-3.7c3.9-3.4,5.9-8.6,6.6-13.7 C535,401.4,528.4,388,520.5,376.7z M160.5,237.8c0.2-5.7,5.7-11.8,10.8-11.5c20.8,1,20.8,2.3,41.6,3.3 c5.1,0.2,10.3,5.6,10.1,11.3c-0.1,3.7-0.7,3.7-0.9,7.3c-0.2,5.7-5.3,10.9-10.3,10.6c-20.8-1-20.7-2.8-41.5-3.9 c-5.1-0.2-9.3-4.1-9.1-9.8C161.2,241.6,160.4,241.5,160.5,237.8z M158.9,292.6c-0.5-3.1-0.2-3.2-0.7-6.3 c-0.9-5.6,2.7-11.2,7.9-12.3c11.1-2.3,11.2-1.6,22.2-3.8c11.1-2.3,10.9-3.4,21.9-5.7c5.1-1.1,10.7,3.1,11.6,8.8 c0.5,3.1-0.4,3.3,0.1,6.4c1,5.6-2,10.7-7.2,11.8c-11.1,2.3-11,2.5-22.1,4.7s-11,2.9-22,5.1 C165.5,302.4,159.8,298.2,158.9,292.6z M189.9,346.6c-3.9,2.7-7.8,2.4-9.7-2.2c-1.1-2.6-1-2.6-2.1-5.2 c-1.9-4.6-0.9-11.6,3-14.3c8.4-5.8,8.5-5.5,16.9-11.2c8.4-5.8,8.3-6,16.7-11.8c3.9-2.7,10.6-0.9,12.5,3.7 c1,2.6,1.2,2.5,2.2,5.1c1.9,4.6-1.8,10.8-5.8,13.5c-8.4,5.8-8,6.7-16.4,12.4C198.9,342.3,198.3,340.9,189.9,346.6z M230,372.4 c-2.8,3.6-7.5,5-11.8,2.6c-2.4-1.3-2.4-1.3-4.8-2.6c-4.2-2.3-6.3-7.4-3.5-11c5.9-7.7,6.1-7.6,12-15.4 c5.9-7.7,5.8-7.8,11.7-15.6c2.8-3.6,9.8-5.1,14.1-2.8c2.4,1.3,2.5,1.2,4.8,2.6c4.3,2.3,4.2,7.8,1.5,11.4 c-5.9,7.7-5.4,8-11.3,15.8C236.7,365.1,235.9,364.7,230,372.4z M271,392.8c-1.9,3.2-6.8,5-11.2,4.8c-1.4-0.1-2.8-0.4-4-0.9 c-3.4-1.5-2.8-2.5-6.2-4c-4.8-2.2-5.7-6.8-3.2-11.1c9-15.4,7.5-17.6,14.9-31c0.6-1.1,1.3-2.3,2-3.6c2.5-4.3,9.9-5.5,14.8-3.3 c3.4,1.5,3.4,1.5,6.7,3.1c4.9,2.2,6,7.3,3.5,11.6C278.5,375.1,280.7,376.1,271,392.8z M324.7,365.2 c-5.4,19.5-2.4,20.1-7.8,39.6c-1.3,4.8-8.5,7.5-13.9,6.4c-3.4-0.8-3.4-0.8-6.9-1.5c-5.4-1.2-7.8-6-6.5-10.7 c5.4-19.5,2.8-20,8.2-39.5c1.3-4.8,8.8-8.2,14.1-7c3.4,0.7,3.1,1.8,6.6,2.6C324,356.1,326.1,360.4,324.7,365.2z M365.6,366.6 c-3.2,22.2-0.4,22.6-3.5,44.8c-0.7,5.3-8.1,9.8-13.9,9.1c-3.4-0.4-3.3-1.6-6.7-2c-5.8-0.7-8.4-5.1-7.7-10.4 c3.1-22.2-0.1-22.6,3-44.9c0.8-5.3,7.9-9,13.7-8.3c3.4,0.4,3.4,0.4,6.9,0.8C363.2,356.4,366.3,361.3,365.6,366.6z M408.7,371.4 c-0.5,7.8,0.3,7.8-0.2,15.6c-0.5,7.8-0.1,7.8-0.6,15.5c-0.5,7.8,0.9,7.8,0.4,15.6c-0.3,5.2-9.1,10.7-17,10.5 c-0.4,0-13-2.6-12.2-11.3c0.7-7.8-1.2-7.8-0.7-15.6c0.5-7.8,0.9-7.8,1.4-15.5s-1.4-7.8-0.9-15.6c0.5-7.8,0.2-7.8,0.8-15.5 c0.3-5.2,8.4-10.6,16.3-10.4c0.4,0,12.3-1.1,13.5,10.2C410.4,362.6,409.2,363.6,408.7,371.4z"></path> <path class="st0" d="M406.8,145.1c0-0.2,0-0.4,0.1-0.6c0-0.1,0-0.2,0-0.3C406.9,144.5,406.8,144.8,406.8,145.1z M406.6,146.4 C406.7,146.4,406.7,146.4,406.6,146.4c0.1-0.4,0.1-0.8,0.1-1.1v-0.1C406.8,145.5,406.7,145.9,406.6,146.4z M323.4,146 c-0.1-0.5-0.2-1-0.2-1.6c-0.1-0.4-0.1-0.8-0.1-1.2c0-0.3,0-0.6-0.1-0.9c0-0.3,0-0.7-0.1-1c0-0.6,0-1.1,0-1.7 c0.1-2,0.3-4.1,0.7-6c0-0.1,0-0.1,0-0.1c0.1-0.3,0.1-0.6,0.2-0.9c0,0,0,0,0,0c0,0,0,0,0,0c-0.2,0.8-0.4,1.7-0.5,2.5 c0,0.2-0.1,0.4-0.1,0.6c-0.4,2.8-0.5,5.8-0.2,8.8c0,0,0.1,0,0.1,0c0.1,1.1,0.3,2.2,0.5,3.3c0,0,0,0,0,0 c-0.1-0.3-0.1-0.6-0.2-0.8C323.5,146.7,323.5,146.4,323.4,146z"></path> </g> <g> <path class="st1" d="M480.2,198.8l3-1.9C482.1,197.5,481.1,198.1,480.2,198.8z M323.6,147c-0.1-0.3-0.1-0.6-0.2-0.9 c-0.1-0.5-0.1-1-0.2-1.6c0,0,0,0,0,0c0.1,1.1,0.3,2.2,0.5,3.3c0,0,0,0,0,0C323.7,147.5,323.6,147.3,323.6,147z M406.6,146.3 C406.7,146.3,406.7,146.3,406.6,146.3c0.1-0.4,0.1-0.8,0.2-1.1v-0.1C406.8,145.5,406.7,145.9,406.6,146.3z M406.8,145.1 c0-0.2,0-0.4,0.1-0.6c0-0.1,0-0.2,0-0.3C406.9,144.5,406.8,144.8,406.8,145.1z M407,142.8L407,142.8 C407,142.9,407,142.9,407,142.8C407,142.8,407,142.8,407,142.8z M323.6,147c-0.1-0.3-0.1-0.6-0.2-0.9c-0.1-0.5-0.1-1-0.2-1.6 c0,0,0,0,0,0c0.1,1.1,0.3,2.2,0.5,3.3c0,0,0,0,0,0C323.7,147.5,323.6,147.3,323.6,147z M406.6,146.3 C406.7,146.3,406.7,146.3,406.6,146.3c0.1-0.4,0.1-0.8,0.2-1.1v-0.1C406.8,145.5,406.7,145.9,406.6,146.3z M406.8,145.1 c0-0.2,0-0.4,0.1-0.6c0-0.1,0-0.2,0-0.3C406.9,144.5,406.8,144.8,406.8,145.1z M407,142.8L407,142.8 C407,142.9,407,142.9,407,142.8C407,142.8,407,142.8,407,142.8z M323.6,147c-0.1-0.3-0.1-0.6-0.2-0.9c-0.1-0.5-0.1-1-0.2-1.6 c0,0,0,0,0,0c0.1,1.1,0.3,2.2,0.5,3.3c0,0,0,0,0,0C323.7,147.5,323.6,147.3,323.6,147z M406.6,146.3 C406.7,146.3,406.7,146.3,406.6,146.3c0.1-0.4,0.1-0.8,0.2-1.1v-0.1C406.8,145.5,406.7,145.9,406.6,146.3z M406.8,145.1 c0-0.2,0-0.4,0.1-0.6c0-0.1,0-0.2,0-0.3C406.9,144.5,406.8,144.8,406.8,145.1z M407,142.8L407,142.8 C407,142.9,407,142.9,407,142.8C407,142.8,407,142.8,407,142.8z M323.6,147c-0.1-0.3-0.1-0.6-0.2-0.9c-0.1-0.5-0.1-1-0.2-1.6 c0,0,0,0,0,0c0.1,1.1,0.3,2.2,0.5,3.3c0,0,0,0,0,0C323.7,147.5,323.6,147.3,323.6,147z M406.6,146.3 C406.7,146.3,406.7,146.3,406.6,146.3c0.1-0.4,0.1-0.8,0.2-1.1v-0.1C406.8,145.5,406.7,145.9,406.6,146.3z M406.8,145.1 c0-0.2,0-0.4,0.1-0.6c0-0.1,0-0.2,0-0.3C406.9,144.5,406.8,144.8,406.8,145.1z M407,142.8L407,142.8 C407,142.9,407,142.9,407,142.8C407,142.8,407,142.8,407,142.8z M323.6,147c-0.1-0.3-0.1-0.6-0.2-0.9c-0.1-0.5-0.1-1-0.2-1.6 c0,0,0,0,0,0c0.1,1.1,0.3,2.2,0.5,3.3c0,0,0,0,0,0C323.7,147.5,323.6,147.3,323.6,147z M406.6,146.3 C406.7,146.3,406.7,146.3,406.6,146.3c0.1-0.4,0.1-0.8,0.2-1.1v-0.1C406.8,145.5,406.7,145.9,406.6,146.3z M406.8,145.1 c0-0.2,0-0.4,0.1-0.6c0-0.1,0-0.2,0-0.3C406.9,144.5,406.8,144.8,406.8,145.1z M407,142.8L407,142.8 C407,142.9,407,142.9,407,142.8C407,142.8,407,142.8,407,142.8z M323.6,147c-0.1-0.3-0.1-0.6-0.2-0.9c-0.1-0.5-0.1-1-0.2-1.6 c0,0,0,0,0,0c0.1,1.1,0.3,2.2,0.5,3.3c0,0,0,0,0,0C323.7,147.5,323.6,147.3,323.6,147z M323.6,147c-0.1-0.3-0.1-0.6-0.2-0.9 c-0.1-0.5-0.2-1-0.2-1.6c0,0,0,0,0,0c0.1,1.1,0.3,2.2,0.5,3.3c0,0,0,0,0,0C323.7,147.5,323.6,147.3,323.6,147z M323.6,147 c-0.1-0.3-0.1-0.6-0.2-0.9c-0.1-0.5-0.2-1-0.2-1.6c0,0,0,0,0,0c0.1,1.1,0.3,2.2,0.5,3.3c0,0,0,0,0,0 C323.7,147.5,323.6,147.3,323.6,147z M323.6,147c-0.1-0.3-0.1-0.6-0.2-0.9c-0.1-0.5-0.2-1-0.2-1.6c0,0,0,0,0,0 c0.1,1.1,0.3,2.2,0.5,3.3c0,0,0,0,0,0C323.7,147.5,323.6,147.3,323.6,147z M323.6,147c-0.1-0.3-0.1-0.6-0.2-0.9 c-0.1-0.5-0.1-1-0.2-1.6c0,0,0,0,0,0c0.1,1.1,0.3,2.2,0.5,3.3c0,0,0,0,0,0C323.7,147.5,323.6,147.3,323.6,147z M323.6,147 c-0.1-0.3-0.1-0.6-0.2-0.9c-0.1-0.5-0.1-1-0.2-1.6c0,0,0,0,0,0c0.1,1.1,0.3,2.2,0.5,3.3c0,0,0,0,0,0 C323.7,147.5,323.6,147.3,323.6,147z M406.6,146.3C406.7,146.3,406.7,146.3,406.6,146.3c0.1-0.4,0.1-0.8,0.2-1.1v-0.1 C406.8,145.5,406.7,145.9,406.6,146.3z M406.8,145.1c0-0.2,0-0.4,0.1-0.6c0-0.1,0-0.2,0-0.3 C406.9,144.5,406.8,144.8,406.8,145.1z M407,142.8L407,142.8C407,142.9,407,142.9,407,142.8C407,142.8,407,142.8,407,142.8z M323.6,147c-0.1-0.3-0.1-0.6-0.2-0.9c-0.1-0.5-0.1-1-0.2-1.6c0,0,0,0,0,0c0.1,1.1,0.3,2.2,0.5,3.3c0,0,0,0,0,0 C323.7,147.5,323.6,147.3,323.6,147z M406.6,146.3C406.7,146.3,406.7,146.3,406.6,146.3c0.1-0.4,0.1-0.8,0.2-1.1v-0.1 C406.8,145.5,406.7,145.9,406.6,146.3z M406.8,145.1c0-0.2,0-0.4,0.1-0.6c0-0.1,0-0.2,0-0.3 C406.9,144.5,406.8,144.8,406.8,145.1z M407,142.8L407,142.8C407,142.9,407,142.9,407,142.8C407,142.8,407,142.8,407,142.8z M323.6,147c-0.1-0.3-0.1-0.6-0.2-0.9c-0.1-0.5-0.1-1-0.2-1.6c0,0,0,0,0,0c0.1,1.1,0.3,2.2,0.5,3.3c0,0,0,0,0,0 C323.7,147.5,323.6,147.3,323.6,147z M406.6,146.3C406.7,146.3,406.7,146.3,406.6,146.3c0.1-0.4,0.1-0.8,0.2-1.1v-0.1 C406.8,145.5,406.7,145.9,406.6,146.3z M406.8,145.1c0-0.2,0-0.4,0.1-0.6c0-0.1,0-0.2,0-0.3 C406.9,144.5,406.8,144.8,406.8,145.1z M407,142.8L407,142.8C407,142.9,407,142.9,407,142.8C407,142.8,407,142.8,407,142.8z M323.6,147c-0.1-0.3-0.1-0.6-0.2-0.9c-0.1-0.5-0.1-1-0.2-1.6c0,0,0,0,0,0c0.1,1.1,0.3,2.2,0.5,3.3c0,0,0,0,0,0 C323.7,147.5,323.6,147.3,323.6,147z M406.6,146.3C406.7,146.3,406.7,146.3,406.6,146.3c0.1-0.4,0.1-0.8,0.2-1.1v-0.1 C406.8,145.5,406.7,145.9,406.6,146.3z M406.8,145.1c0-0.2,0-0.4,0.1-0.6c0-0.1,0-0.2,0-0.3 C406.9,144.5,406.8,144.8,406.8,145.1z M407,142.8L407,142.8C407,142.9,407,142.9,407,142.8C407,142.8,407,142.8,407,142.8z M323.6,147c-0.1-0.3-0.1-0.6-0.2-0.9c-0.1-0.5-0.1-1-0.2-1.6c0,0,0,0,0,0c0.1,1.1,0.3,2.2,0.5,3.3c0,0,0,0,0,0 C323.7,147.5,323.6,147.3,323.6,147z M406.6,146.3C406.7,146.3,406.7,146.3,406.6,146.3c0.1-0.4,0.1-0.8,0.2-1.1v-0.1 C406.8,145.5,406.7,145.9,406.6,146.3z M406.8,145.1c0-0.2,0-0.4,0.1-0.6c0-0.1,0-0.2,0-0.3 C406.9,144.5,406.8,144.8,406.8,145.1z M407,142.8L407,142.8C407,142.9,407,142.9,407,142.8C407,142.8,407,142.8,407,142.8z M323.6,147c-0.1-0.3-0.1-0.6-0.2-0.9c-0.1-0.5-0.1-1-0.2-1.6c0,0,0,0,0,0c0.1,1.1,0.3,2.2,0.5,3.3c0,0,0,0,0,0 C323.7,147.5,323.6,147.3,323.6,147z M406.6,146.3C406.7,146.3,406.7,146.3,406.6,146.3c0.1-0.4,0.1-0.8,0.2-1.1v-0.1 C406.8,145.5,406.7,145.9,406.6,146.3z M406.8,145.1c0-0.2,0-0.4,0.1-0.6c0-0.1,0-0.2,0-0.3 C406.9,144.5,406.8,144.8,406.8,145.1z M407,142.8L407,142.8C407,142.9,407,142.9,407,142.8C407,142.8,407,142.8,407,142.8z M510.5,196.4C510.5,196.4,510.5,196.4,510.5,196.4c1.1,0.8,2.2,1.5,3.2,2.3l0,0C512.7,197.9,511.6,197.1,510.5,196.4z M323.8,147.8c-0.1-0.3-0.1-0.6-0.2-0.8c-0.1-0.3-0.1-0.6-0.2-0.9c-0.1-0.5-0.1-1-0.2-1.6c0,0,0,0,0,0 C323.3,145.6,323.5,146.7,323.8,147.8c0.2,1.1,0.5,2.3,0.8,3.4c0,0,0,0,0.1,0C324.3,150.1,324,148.9,323.8,147.8z M406.6,146.3 c-0.2,1.2-0.4,2.3-0.7,3.4c0,0,0,0,0,0C406.3,148.7,406.5,147.5,406.6,146.3c0.1-0.4,0.1-0.8,0.2-1.1v-0.1 C406.8,145.5,406.7,145.9,406.6,146.3z M406.8,145.1c0-0.2,0-0.4,0.1-0.6c0-0.1,0-0.2,0-0.3 C406.9,144.5,406.8,144.8,406.8,145.1z M407,142.8L407,142.8C407,142.9,407,142.9,407,142.8C407,142.8,407,142.8,407,142.8z"></path> </g> </g> <g> <path class="st0" d="M480.2,198.8l3-1.9C482.1,197.5,481.1,198.1,480.2,198.8z"></path> <path class="st0" d="M578.3,201.2c-1.1-3.2-2.3-6.4-3.5-9.6c-8.5-22.5-19.3-44.6-35-62.4c-9.8-11.1-21.5-20.5-35.6-27.3 C467.5,84.4,426,73,385.3,70.5c-4.6-0.3-9.1-0.4-13.6-0.4h0c-60.4,0-119.2,23.9-164,64.2c6.7,2.7,17.7,7.1,30.2,11.9 c-4.6-5.5-4.4-6.5-10.1-13c-3.4-3.9-3-9.1,1.5-12c3.6-2.3,4.1-1.7,7.7-4.1c4.5-2.9,11.1-3.3,14.6,0.6c6.3,7.2,4.7,8.2,11,15.4 c6.3,7.2,6.3,7.2,12.6,14.4c3.4,3.9,3.5,9-0.7,11.9c2.8,0.9,5.6,1.9,8.2,2.7c10.2-6.7,21.6-11.9,33.6-15.7 c-1.3-9,0.6-17.8,5-25.4c-1.2-12.2-2.5-14-3.6-29.5c-0.3-4.7,3.7-9,9-9.3c4.2-0.2,4.1-1.4,8.3-1.7c5.3-0.3,8.4,4.8,8.7,9.5 c0.4,5,0.8,8.5,1.3,11.5c5-2.1,10.2-3.4,15.5-3.9h0c0.2-4.6,0.1-5.3,0.4-11c0.2-4.8,4.8-9.4,10-9.1c3.4,0.1,3.3,1.2,6.6,1.3 c5.2,0.2,9,4,8.7,8.8c-0.3,6.6,0.4,6.6,0.1,13.2c0,0.3,0,0.5,0,0.8c4.3,1.9,8.4,4.4,11.9,7.5c0.2-0.6,0.4-1.3,0.6-2 c3-9.2,5-8.7,8-17.9c1.5-4.5,6.3-7.5,11.4-6.2c3.3,0.9,3.5,0.3,6.9,1.1c5.1,1.3,7.2,6.7,5.7,11.2c-3,9.2-2.2,9.4-5.2,18.6 c-3,9.2-2.7,9.3-5.7,18.4c-0.9,2.7-3.3,4.7-6.1,5.5c0.2,2.3,0.2,4.5,0.1,6.8c8.1,2.1,15.9,4.7,23.2,7.8 c6.2,2.7,12.7,5.7,18.6,9.3c3.6,2.2,6.9,4.7,9.9,7.5c6.1,5.8,11.8,12.6,16.6,19.8c0.5,0.7,0.9,1.4,1.4,2.1 c0.5,0.7,0.9,1.4,1.3,2.1c0.4,0.7,0.9,1.4,1.3,2.1c-1,0.5-2,1-3.1,1.7l-3,1.9c-1.2,0.8-2.3,1.7-3.2,2.5 c-0.2,0.1-0.3,0.3-0.5,0.5c-5.4,5.4-9.4,13.2-9.4,21.4c0,0.4,0,0.7,0,1.1c0,0.2,0,0.3,0,0.5c0,0.3,0.1,0.6,0.1,1 c0,0.2,0.1,0.5,0.1,0.7c0,0.3,0.1,0.6,0.1,0.9c0.1,0.3,0.1,0.6,0.2,0.9c0.2,1,0.5,2,0.8,2.9c0.1,0.3,0.2,0.6,0.3,0.8 c0.1,0.3,0.2,0.6,0.4,1c0.1,0.2,0.1,0.3,0.2,0.5c0.1,0.2,0.2,0.4,0.3,0.6c0.1,0.2,0.2,0.4,0.3,0.7c0.1,0.3,0.3,0.6,0.5,0.9 c0,0,0,0.1,0.1,0.1c0.1,0.2,0.2,0.4,0.3,0.6c0.2,0.4,0.4,0.7,0.6,1c0.1,0.2,0.2,0.3,0.3,0.4c0.1,0.2,0.2,0.3,0.3,0.5 c0.2,0.3,0.4,0.6,0.6,0.9c0.2,0.4,0.5,0.7,0.7,1c0.3,0.4,0.6,0.7,0.8,1.1c0.9,1.1,1.8,2.1,2.7,3c5.4,5.4,12.9,8.7,21.1,8.7 c8.2,0,16.3-2.8,21.6-8.2c5.4-5.4,8.1-13.4,8.1-21.6c0-0.4,0-0.8,0-1.1c0-0.4,0-0.8-0.1-1.1c0-0.4-0.1-0.7-0.1-1.1 c0-0.4-0.1-0.8-0.2-1.1c-0.1-0.3-0.1-0.6-0.2-0.9c-0.1-0.4-0.2-0.8-0.3-1.2c0,0,0-0.1,0-0.1c-0.1-0.4-0.2-0.9-0.4-1.3 c-0.1-0.4-0.3-0.8-0.4-1.2c-0.1-0.4-0.3-0.7-0.4-1.1c0,0,0-0.1-0.1-0.1c-0.4-0.9-0.8-1.7-1.2-2.5c-0.2-0.3-0.4-0.6-0.6-0.9 c-0.2-0.3-0.4-0.6-0.6-0.9c-0.1-0.1-0.2-0.2-0.2-0.4c-0.5-0.7-1-1.4-1.6-2.1c-0.1-0.1-0.2-0.2-0.3-0.4c-0.5-0.6-1.1-1.3-1.6-1.9 c-0.3-0.3-0.7-0.7-1-1c-0.5-0.6-1.1-1.1-1.7-1.6c-0.2-0.2-0.4-0.4-0.6-0.5c0,0,0-0.1-0.1-0.1h0c-0.7-0.6-1.4-1.2-2.2-1.8 c-1-0.8-2.1-1.5-3.3-2.3c-1.2-0.7-2.4-1.4-3.8-2c0.9-0.5,1.7-0.9,2.6-1.3c0.9-0.5,1.8-0.9,2.6-1.3h0c0.9-0.4,1.8-0.9,2.6-1.3 c8.4-3.9,16.2-6.4,26.1-8.6c1.6-0.3,3.1-0.5,4.6-0.5c9,0,16.8,5.8,20.4,14c1.4,3,2.1,6.3,2.2,9.8c0.3,13,5.1,17.1,8.2,18.6 c2,1,3.5,1.4,4.6,1.4c2.2,0,3.1-1.6,3.2-4C584.2,215.2,579.4,204.2,578.3,201.2z M306.1,141.8c-5.1,1.5-5,1.9-10.1,3.4 c-5.2,1.6-11.9-1-13.6-5.6c-3-7.8-2.5-7.9-5.5-15.7c-3-7.8-1.7-8.2-4.7-15.9c-1.8-4.6,0.5-8.4,5.7-10c5.1-1.5,4.5-3.2,9.6-4.7 c5.2-1.6,10.3,1.9,12.1,6.5c3,7.8,4,7.5,7,15.2c3,7.8,3.6,7.6,6.6,15.4C314.9,135.2,311.4,140.3,306.1,141.8z M454.1,141.9 c-2.3,4.1-7.7,6.5-12.5,4.6c-2.5-1-2.7-0.7-5.2-1.7c-4.8-1.9-5.5-7.2-3.3-11.3c5-9.1,2.9-9.9,7.9-18.9c4.9-9.1,5.1-9,10.1-18 c2.3-4.1,9.2-6.1,14-4.2c2.5,1,2.2,1.7,4.7,2.7c4.8,1.9,6.9,6.7,4.6,10.9c-5,9.1-5.8,8.7-10.8,17.7S459.1,132.8,454.1,141.9z M482.5,162.1c-3.5,3.6-9.6,3.3-13.4,0c-1.8-1.6-1.4-2-3.3-3.6c0,0-0.1-0.1-0.1-0.1c-3.7-3.3-5.1-8.6-1.7-12.2 c5.2-5.3,5.2-5.2,10.4-10.6c5.2-5.3,6.2-4.4,11.4-9.7c5.2-5.3,5.4-5.1,10.6-10.4c3.5-3.6,9.3-5.2,13.1-1.9 c1.8,1.6,1.2,2.2,3,3.8c3.8,3.2,4.5,9.2,1,12.7c-5.2,5.3-5.7,4.9-10.9,10.2c-3.4,3.5-4.4,4.9-6.2,7c-0.9,1-2,2.3-3.7,4.1 C487.6,156.7,487.7,156.8,482.5,162.1z M513.6,207.4c2.4,2.4,4.4,5.1,5.8,8.1c1,2.3,1.6,4.8,1.6,7.6c0,6.4-2,12.7-6.2,16.9 c-4.2,4.2-10.5,5.3-16.9,5.3c-6.4,0-11.7-2.1-15.9-6.3c-1.2-1.1-2.1-2.4-2.9-3.7c-2.2-3.5-3.2-7.6-3.2-12.2 c0-6.4,1.6-12.1,5.7-16.3c0.7-0.7,1.4-1.3,2.1-1.9c2.3-1.8,5-3.2,8-4c2-0.6,4-0.8,6.2-0.8c0.4,0,0.7,0,1.1,0 c2.7,0.1,5.2,0.9,7.5,2C509.1,203.5,511.5,205.3,513.6,207.4z M544,170.9c-6.9,3-6.8,3.1-13.7,6.1c-6.9,3-7.2,2.2-14.1,5.1 c-6.9,3-6.9,2.8-13.8,5.8c0,0-0.1,0-0.1,0.1c0,0,0,0,0,0c-2.8,1.1-5.6,1-7.9-0.2c-1.8-1-3.3-2.6-4.2-4.9c-1.2-3.1-1-3.2-2.2-6.4 c-2-5.2,0.6-9.3,5.6-11.5c6.9-3,5.7-5.9,12.6-8.9c6.9-3,6.7-3.3,13.6-6.3c6.9-3,8-0.1,14.9-3c5-2.1,10.7-1.2,12.7,4.1 c1.2,3.1,2.4,2.6,3.6,5.8C553,161.8,548.9,168.7,544,170.9z"></path> </g> <g> <path class="st1" d="M406.8,137.5C406.8,137.5,406.8,137.5,406.8,137.5c0,0,0-0.1,0-0.1C406.8,137.4,406.8,137.5,406.8,137.5z"></path> </g> <g> <path class="st0" d="M323.9,132.6c-0.1,0.3-0.1,0.6-0.2,0.9C323.8,133.2,323.8,132.9,323.9,132.6 C323.9,132.6,323.9,132.6,323.9,132.6z"></path> <path class="st0" d="M340.7,172c-0.1,0-0.1,0-0.2,0c-6.1-3.9-11.3-9.7-14.3-16.5c-0.6-1.4-1.2-2.9-1.6-4.3 c-0.4-1.1-0.6-2.3-0.9-3.4c-0.2-1.1-0.4-2.2-0.5-3.3c-0.1-0.4-0.1-0.8-0.1-1.3c0,0.4,0.1,0.8,0.1,1.2c0.1,0.5,0.1,1,0.2,1.6 c0.1,0.3,0.1,0.6,0.2,0.9c0.1,0.3,0.1,0.5,0.2,0.8c0.2,1.1,0.5,2.3,0.9,3.4c0.4,1.4,0.9,2.8,1.5,4.2 C329.2,162.3,334.5,168.1,340.7,172z"></path> <path class="st0" d="M406.8,145.1c0,0.1,0,0.1,0,0.1c0,0.4-0.1,0.8-0.1,1.1c-0.2,1.2-0.4,2.3-0.6,3.4 c-1.5,6.7-4.9,12.9-9.9,17.5l-5.1,4.4h0c-0.1,0-0.1,0-0.2,0l5.3-4.6c5-4.6,8.3-10.8,9.9-17.4c0.3-1.1,0.5-2.3,0.7-3.4 C406.7,145.9,406.8,145.5,406.8,145.1C406.8,145.1,406.8,145.1,406.8,145.1z"></path> <path class="st0" d="M406.9,144.2c0,0.1,0,0.2,0,0.3c0,0.2,0,0.4-0.1,0.6C406.8,144.8,406.9,144.5,406.9,144.2z"></path> <path class="st0" d="M407,142c0,0.3,0,0.6,0,0.8c0,0,0,0.1,0,0.1v-0.1C407,142.6,407,142.3,407,142z"></path> </g> <g> <path class="st1" d="M323.9,132.6c-0.1,0.3-0.1,0.6-0.2,0.9c0,0,0,0.1,0,0.1c-0.1,0.5-0.2,1-0.3,1.5 C323.5,134.2,323.7,133.4,323.9,132.6C323.9,132.6,323.9,132.6,323.9,132.6C323.9,132.6,323.9,132.6,323.9,132.6z"></path> <path class="st1" d="M406.9,137.9c0-0.1,0-0.2,0-0.4c0,0,0,0,0,0C406.8,137.6,406.9,137.7,406.9,137.9z"></path> </g> <g> <path class="st0" d="M472.9,198.2c-6.8,6.8-10.8,16.1-10.8,25c0,7.6,3,13.9,6.2,18.6c-4,2.6-6.9,5-8.1,6.8 c-0.6,1,0.3,4.4,1.1,9.4c-6.6,4.4-12.4,11.1-17.5,20.4c-1.9,3.4-3.5,6.8-5.1,10.2c-2.7,5.6-5.2,10.9-8.5,15.6 c-7.1,10.1-18.5,18.6-33.2,24.4c-18.2,7.3-38.4,11.1-58.4,11.1c-6.5,0-13-0.4-19.3-1.2c-25.5-3.2-45.3-10.2-57.8-18.9v-0.4 c-0.1-20.8,7.7-73,2-76.4c-1.1-0.6-4.8-2.5-10.1-5c-3-1.4-6.6-3.1-10.5-5c-1.1-0.5-2.1-1-3.2-1.5c-4.7-2.2-9.8-4.6-15-6.9 c-23.8-11-49.7-22.8-49.7-22.8c-1.9-1-4.4-2.3-7.2-3.7c-1.6-0.8-3.3-1.7-5.1-2.7c-1-0.5-2.1-1.1-3.1-1.7c-1-0.5-2-1.1-3.1-1.6 c-21.8-11.5-52.1-27.7-57.5-30.9c-7.4-4.4-11.4-8.4-8.5-12.5c4.2-6,17.6,4.2,20.4-0.5c2.7-4.6-16.1-7.6-10.4-14.9 c5.4-7,16.1,6.7,19.5,1.4c2.6-4-13.9-8.6-9.7-14.5c6-8.6,17.7,5.9,21.2,0.3c2.3-3.8-12.9-8.8-9.4-14.6c3.8-6.3,12.5-2.4,23,2.7 c9.4,4.6,43.1,22,51.8,26.4c1.3,0.7,2.1,1.1,2.1,1.1s0.5,0.2,1.3,0.6c0.8,0.3,2,0.8,3.5,1.4c7.6,3.1,23.2,9.3,40.7,15.9l0,0 c7.8,2.9,16,5.9,24,8.7c3.1,1.1,6.2,2.1,9.2,3.1c1.4,0.4,2.7,0.9,4,1.3c1.4,0.5,2.8,0.9,4.2,1.3c2.3,0.7,4.6,1.4,6.8,2.1v0 c0.1,0,0.2,0.1,0.4,0.1c0.1,0,0.3,0.1,0.4,0.1c9.7,2.7,17.4,3,22.2,2.9c12.3-0.1,20.2-0.9,24.9-1.5c0.1,0,0.1,0,0.2,0 c-6.2-3.9-11.5-9.7-14.5-16.6c-0.6-1.4-1.1-2.8-1.5-4.2c-0.4-1.1-0.7-2.3-0.9-3.4c-0.1-0.3-0.1-0.6-0.2-0.8 c-0.1-0.3-0.1-0.6-0.2-0.9c-0.1-0.5-0.1-1-0.2-1.6c-0.1-0.4-0.1-0.8-0.1-1.2c0-0.3,0-0.6-0.1-0.9c0-0.3,0-0.7-0.1-1 c0-0.6,0-1.1,0-1.7c0.1-2,0.3-4.1,0.7-6c0-0.1,0-0.1,0-0.1c0.1-0.3,0.1-0.6,0.2-0.9c1.7-6.6,5.6-12.5,11.2-17.2 c3.5-2.9,7.3-5.2,11.4-7c4.5-2,9.2-3.3,14.1-3.9c4.6-0.6,9.3-0.4,13.9,0.4c4.3,0.8,8.4,2.3,12.2,4.4c3.9,2.1,7.4,4.8,10.3,7.9 c3.5,3.7,6.2,7.9,8,12.6c0.8,2.3,1.4,4.7,1.8,7.1c0,0,0,0.1,0,0.1c0,0.1,0,0.2,0,0.3c0,0.1,0,0.1,0,0.1c0.1,0.7,0.1,1.5,0.2,2.2 c0,0.8,0,1.5,0,2.3c0,0.3,0,0.6,0,0.8v0.1c0,0.4,0,0.8-0.1,1.2c0,0.3-0.1,0.6-0.1,0.9c0,0,0,0,0,0.1c0,0.4-0.1,0.8-0.2,1.2 c-0.2,1.2-0.4,2.3-0.7,3.4c-1.6,6.6-4.9,12.7-9.9,17.4l-5.3,4.6c0.1,0,0.1,0,0.2,0h0c7.2,0.1,16.4,0.5,28.8-1.5 c8.4-1.3,17.4-3.4,26.6-5.9c5.4,2.8,10.4,6,14.5,9.9c5.6,5.3,11,11.7,15.6,18.7l0,0l0,0c0.3,0.5,0.6,1,1,1.4 C475.8,195.5,474.3,196.8,472.9,198.2z"></path> <path class="st0" d="M293,170.5c-0.1,0-0.2-0.1-0.4-0.1v0C292.7,170.4,292.8,170.5,293,170.5z"></path> </g> </g> <g> <g> <path class="st0" d="M512.1,666.7c-3.6,0-7.1-1.9-8.9-5.4c-2.6-4.9-0.7-10.9,4.2-13.5c110-57.8,178.3-170.8,178.3-294.9 c0-53.5-12.3-104.6-36.6-151.9c-2.5-4.9-0.6-10.9,4.3-13.5c4.9-2.5,10.9-0.6,13.5,4.3c25.8,50.1,38.8,104.3,38.8,161.1 c0,65.6-18.1,129.6-52.4,185.1c-33.3,54-80.6,98.1-136.7,127.5C515.3,666.3,513.7,666.7,512.1,666.7z"></path> </g> <g> <path class="st0" d="M568.8,96.5c-2.2,0-4.4-0.7-6.3-2.2C503.5,46.4,429.1,20,352.9,20C282,20,214.3,42,157.2,83.6 c-4.5,3.3-10.7,2.3-14-2.2c-3.2-4.5-2.3-10.7,2.2-14C206,23.3,277.8,0,352.9,0c41.2,0,81.6,7,120,20.9 c37.1,13.4,71.5,32.9,102.3,57.8c4.3,3.5,4.9,9.8,1.5,14.1C574.6,95.3,571.7,96.5,568.8,96.5z"></path> </g> <g> <path class="st0" d="M79.4,569.8c-3,0-6-1.4-8-4C24.7,504.1,0,430.5,0,352.9c0-66.7,18.7-131.7,54.1-187.8 c2.9-4.7,9.1-6.1,13.8-3.1c4.7,2.9,6.1,9.1,3.1,13.8c-33.4,53-51,114.2-51,177.2c0,73.2,23.3,142.7,67.4,200.9 c3.3,4.4,2.5,10.7-1.9,14C83.7,569.1,81.5,569.8,79.4,569.8z"></path> </g> </g> </g> </g> <g id="Författarbesök"> </g> <g id="Skolbio"> </g> <g id="Musik"> </g> </svg> 