<?xml version="1.0" encoding="UTF-8"?> <svg xmlns="http://www.w3.org/2000/svg" xmlns:xlink="http://www.w3.org/1999/xlink" version="1.1" x="0px" y="0px" viewBox="0 0 1500 1500" style="enable-background:new 0 0 705.8 705.3;" xml:space="preserve" width="300" height="300"> <style type="text/css"> .st0{fill:#f7f5ed;} .st1{fill:none;stroke:#606060;stroke-width:5;stroke-miterlimit:10;} .st2{fill:#606060;} </style> <g id="Layer_1"> </g> <g id="Konst"> </g> <g id="Teater"> </g> <g id="Museum"> </g> <g id="Författarbesök"> <g> <g> <g> <path class="st0" d="M323.4,372.7c-0.1,0-0.2,0.1-0.3,0.1C323.1,372.7,323.3,372.7,323.4,372.7L323.4,372.7z"></path> <path class="st0" d="M382.6,293.9c-0.4,0.4-0.8,0.7-1.3,1C381.7,294.6,382.1,294.3,382.6,293.9z"></path> <path class="st0" d="M552.9,344.5L552.9,344.5c-0.4-0.5-0.7-1-1.1-1.5c-0.5-0.8-1.1-1.6-1.7-2.4c-0.1-0.2-0.2-0.3-0.3-0.5 c-0.1-0.2-0.2-0.4-0.3-0.6c0.2,0.4,0.5,0.7,0.7,1.1c0.6,0.8,1.1,1.6,1.6,2.4C552.3,343.5,552.6,344,552.9,344.5z"></path> </g> <g> <path class="st1" d="M297.4,293"></path> </g> <g> <path class="st0" d="M576.9,344.1L576.9,344.1l0.1,0.1L576.9,344.1z"></path> </g> <g> <path class="st0" d="M576.9,344.1l-3.4-4.2L576.9,344.1l0.1,0.1L576.9,344.1z"></path> </g> <g> <path class="st0" d="M581.3,349.5l-10.9,8.9c0,0.1,0,0.1,0.1,0.2l10.9-9L581.3,349.5z M551.9,343L551.9,343 c0.3,0.6,0.7,1.1,1,1.5l0,0C552.6,344,552.3,343.5,551.9,343z"></path> <path class="st0" d="M652.2,404.4c-0.6,1.2-1.8,2-3.1,2H649c-5-0.1-7.2,1.7-8,6.6c-0.1,0.5-0.3,1-0.6,1.4c0,0,0,0.1-0.1,0.1 c-0.1,0.1-0.1,0.2-0.2,0.2c-0.1,0.1-0.2,0.2-0.3,0.3c0,0-0.1,0.1-0.1,0.1l-97.9,80.4c-0.6,0.5-1.4,0.8-2.2,0.8 c-0.1,0-0.2,0-0.3,0c-0.9-0.1-1.8-0.5-2.4-1.3L481.8,428c0,0,0,0,0,0c-0.2-0.2-0.4-0.3-0.5-0.5c-7.1-8.7-5.9-21.5,2.8-28.7 l14.1-11.6l-41.5-49l-11.8-69.6c-0.3-1.9-2.1-3.2-4-2.9c-1.9,0.3-3.2,2.1-2.9,4l14.3,84.1l0,0.1c2.9,19,6.5,44.4,8.1,61.1 c4,39.8,92.6,241,92.6,241l-94.2,49.3l-92.6-191.6l13.7-49.7c0.5-1.9-0.6-3.8-2.4-4.3c-1.9-0.5-3.8,0.6-4.3,2.4l-15.4,56.1 l-0.1,0.3c-4.1,12.7-10.9,33.5-20,58.6c-15.5,43-41.4,127.7-41.4,127.7L191,666c0,0,31.7-107.3,45.1-143.8 c-1.4,0.8-2.7,1.6-3.7,2.2l-0.2,0.1c-4.5,2.6-9.7,3.8-15.2,5c-7.5,1.7-15.2,3.4-22.6,9.1c-13.6,10.3-33.7,22.2-34.5,22.7 c-1.3,0.7-2.8,0.6-4-0.3c-1.1-0.9-1.6-2.4-1.1-3.8l2.9-8.9c-4.6,4.7-9.7,9.9-13.3,13.4c-8.4,8.3-24.9,13.4-25.6,13.6 c-1.2,0.4-2.5,0.1-3.4-0.8c-0.9-0.8-1.3-2.1-1.1-3.3l0.8-4c-8.4,6.1-20.4,18.9-27.5,27.4c-0.7,0.8-1.7,1.3-2.7,1.3 c-0.4,0-0.8-0.1-1.2-0.2c-1.4-0.5-2.3-1.8-2.3-3.3c-0.2-55.8,18.7-90.8,25.2-101.1l-7.2-4.4c-1.4-0.8-2-2.4-1.5-4 c16.3-56.1,52.7-80.5,70.2-92.2c2.8-1.9,5.8-3.9,7.5-5.3c-1-0.3-2.1-0.5-3.4-0.6c-10.7-0.3-25.7,10.8-30.6,15.1 c-1.2,1.1-3.1,1.2-4.4,0.2c-1.3-1-1.8-2.8-1.1-4.2c11.9-26.3,40.8-47,64.7-60.5c0.2,1.2,0.5,2.4,0.8,3.7 c0.2,0.7,0.3,1.4,0.5,2.1c0.1,0.4,0.2,0.9,0.4,1.4c-18.1,10.3-38.7,24.8-51.7,42.2c6.5-3.8,14.4-7.2,21.6-7 c2.6,0.1,5.1,0.6,7.2,1.6c2.5,1.2,3.9,2.8,4,4.9c0.3,4-3.7,6.7-11.7,12.1c-16.5,11.1-50.6,33.9-66.6,85.8l8,4.9 c0.8,0.5,1.4,1.4,1.6,2.3s0,2-0.6,2.8c-0.2,0.3-23.6,33.1-25.8,90.6c8.1-9.1,22-23.3,30.6-25.6c1.2-0.3,2.4,0,3.3,0.8 c0.9,0.8,1.3,2.1,1,3.3l-1.1,5.2c5.2-2,12.6-5.5,16.9-9.8c7.8-7.7,23.6-23.9,23.7-24c1.1-1.2,2.9-1.4,4.3-0.6 c1.4,0.8,2,2.5,1.5,4.1l-4.7,14.2c7.2-4.5,17.8-11.2,25.8-17.3c8.6-6.6,17.5-8.6,25.3-10.3c5.1-1.2,9.6-2.2,13.2-4.2l0.2-0.1 c2.7-1.5,6.8-3.9,11.8-7.4c13.4-9.4,32.9-26.8,45.1-56.7c5.6-13.7,10-23.6,13.1-29.4c2.5-4.6,4.6-8,7.9-7.4 c1.4,0.2,2.5,1.2,3,2.5c1.7,2.4,6.1,10.3,2.1,23.4c5.2-4.4,12.1-10.9,19.4-20.1c15.6-19.6,14.5-41.1,14.4-41.3 c-0.1-1.8,1.1-3.3,2.9-3.7c0.4-0.1,4-0.6,7.2,2.3c2.7,2.4,4.3,6.4,4.8,11.8c9.3-11.1,18.3-23.8,20-31.3c0.3-1.3,1.3-2.3,2.6-2.6 c1.3-0.3,2.7,0.2,3.5,1.2c2.6,3.2,5.6,6.9,7.6,9.1c5.2-7,18.4-31.6,24.7-55.5c4.7-17.9,6.9-39,8-52.7c1.2-0.9,2.5-1.8,3.7-2.6 c1.2-0.9,2.5-1.8,3.7-2.6c11.4-8,22.9-15.9,34.6-23.5c32.3,37.2,64.6,83.9,80.7,107.7c0.1,0.2,0.2,0.4,0.3,0.6 c0.1,0.2,0.2,0.3,0.3,0.5c0.6,0.8,1.1,1.6,1.7,2.4c0.4,0.5,0.7,1,1.1,1.5c1.2,1.7,2.3,3.1,3.1,4.2c1,1.3,1.6,2.1,1.7,2.2 c0.9,1.1,2.6,3.2,4,5.7c0,0,0.1,0.1,0.1,0.1c1.3,2.1,2.4,4.4,2.7,6.6c0,0.1,0,0.1,0,0.2c0.1,0.8,0.1,1.5,0,2.2 c-0.3,1.8-1.4,3.2-3.3,4.5c-0.3,0.2-0.7,0.4-1.6,0.2c-0.7-0.2-1.5-0.5-2.3-1c-0.1,0-0.1-0.1-0.1-0.1c-1.6-1-3.4-2.6-5.2-4.6 c0,0-0.1-0.1-0.1-0.1c-2.1-2.2-4.2-4.9-6.1-7.6c-1-1.3-1.9-2.7-2.7-3.9c-0.4-0.7-0.8-1.3-1.2-1.9c-0.2-0.3-0.4-0.7-0.6-1 c-0.1-0.2-0.3-0.5-0.5-0.6c-1.1-1.2-2.9-1.4-4.3-0.6c-1.7,1-2.2,3.1-1.2,4.8c0.2,0.3,0.6,1,1.2,1.9c0.3,0.5,0.7,1.2,1.2,1.8 c0.8,1.2,1.7,2.5,2.7,4l-51.9,42.7c-4.7,3.9-6.1,10.3-3.8,15.6l61.8-50.8c0,0,0.1,0.1,0.1,0.1c1.6,1.7,3.3,3.4,5.1,4.7 c0,0,0.1,0.1,0.1,0.1l-62.9,51.7l51.2,62.3l92.5-76l-51.2-62.3l-0.1-0.1l-10.9,8.9c-0.8-2.2-1.9-4.3-3.1-6.3 c0-0.1-0.1-0.1-0.1-0.1l9.7-8l0.1,0.1l-0.1-0.1l-3.4-4.2c-0.4-0.4-0.7-0.9-1.6-2.6c-0.1-0.1-0.1-0.3-0.2-0.4 c-0.1-0.2-0.1-0.3-0.2-0.5c0-0.1-0.1-0.2-0.1-0.4l-10,8.2c-1-1.4-2.5-3.3-4.1-5.7l17.1-14c0,0,0.1-0.1,0.1-0.1 c0,0,0.1,0,0.1-0.1l0.5-0.5c0,0,0.1-0.1,0.1-0.1l0.1-0.1c0,0,0.1-0.1,0.1-0.1c1.8-1.2,3.9-1.9,6.1-1.9c3.4,0,6.6,1.5,8.8,4.2 l5.8,7l55.6,67.7C652.6,401.7,652.8,403.2,652.2,404.4z"></path> </g> <g> <path class="st0" d="M552.9,344.5L552.9,344.5c-0.4-0.5-0.7-1-1.1-1.5c-0.5-0.8-1.1-1.6-1.7-2.4l0.1-0.1 c0.6,0.8,1.1,1.6,1.6,2.4C552.3,343.5,552.6,344,552.9,344.5z"></path> <path class="st2" d="M552.9,344.5L552.9,344.5c-0.4-0.5-0.7-1-1.1-1.5c-0.5-0.8-1.1-1.6-1.7-2.4c-0.1-0.2-0.2-0.3-0.3-0.5 c-0.1-0.2-0.2-0.4-0.3-0.6c0.2,0.4,0.5,0.7,0.7,1.1c0.6,0.8,1.1,1.6,1.6,2.4C552.3,343.5,552.6,344,552.9,344.5z"></path> </g> <g> <path class="st2" d="M323.4,372.7c-0.1,0-0.2,0.1-0.3,0.1C323.2,372.7,323.3,372.7,323.4,372.7L323.4,372.7z M323.4,372.7 c-0.1,0-0.2,0.1-0.3,0.1C323.2,372.7,323.3,372.7,323.4,372.7L323.4,372.7z M323.4,372.7c-0.1,0-0.2,0.1-0.3,0.1 C323.2,372.7,323.3,372.7,323.4,372.7L323.4,372.7z M323.4,372.7c-0.1,0-0.2,0.1-0.3,0.1C323.2,372.7,323.3,372.7,323.4,372.7 L323.4,372.7z M323.4,372.7c-0.1,0-0.2,0.1-0.3,0.1C323.2,372.7,323.3,372.7,323.4,372.7L323.4,372.7z M381.3,295 c0.5-0.3,0.9-0.7,1.3-1C382.1,294.3,381.7,294.6,381.3,295z M323.4,372.7c-0.1,0-0.2,0.1-0.3,0.1 C323.2,372.7,323.3,372.7,323.4,372.7L323.4,372.7z M323.4,372.7c-0.1,0-0.2,0.1-0.3,0.1C323.2,372.7,323.3,372.7,323.4,372.7 L323.4,372.7z M323.4,372.7c-0.1,0-0.2,0.1-0.3,0.1C323.2,372.7,323.3,372.7,323.4,372.7L323.4,372.7z M323.4,372.7 c-0.1,0-0.2,0.1-0.3,0.1C323.2,372.7,323.3,372.7,323.4,372.7L323.4,372.7z"></path> <path class="st0" d="M512.3,188.4c-0.3-0.4-0.9-0.6-1.6-0.5l-26.8,5.6l-3.9,0.8c-16.1,3-15.1,9.8-13.5,16.4 c0.3,1.2,0.6,2.5,0.8,3.6c0.2,1.1,0.3,2.1,0.2,3.1c-2.4,1.5-4.8,3-7.2,4.6c-10.3,6.6-20.5,13.4-30.6,20.4c-1.5,1-3,2.1-4.5,3.1 c-1.5,1.1-3,2.1-4.5,3.2c-17,12-33.6,24.5-49.8,37.2h0c-0.3,0.1-0.6,0.2-0.8,0.2c-0.9,0.2-2.3,0.6-4.2,1.1 c-2.2,0.6-4.9,1.2-8.1,2c-16.1,3.9-43.3,10.2-59.4,13.7c0,0,0,0,0,0c-4.7-1.9-13-3.4-20.5-4.1c17.2-6.3,48.1-13.7,49.5-14.1 c0.6-0.2,1.2-0.5,1.7-0.9c0.9-0.9,1.2-2.1,0.9-3.2c-0.3-1.2-1.1-2.1-2.2-2.5c-9.8-3.5-14.8-4.2-25.3-4.3 c13.9-8.9,46.9-12.6,64.1-14.6c15-1.7,17-2,18.4-4.1c0.6-0.9,0.8-2,0.6-3c-0.4-1.4-1.6-2.5-3-2.6c0,0-0.1,0-0.1,0 c9.2-1.2,19.6-1.4,28.9-1.1c1.5-1.1,3.1-2.2,4.6-3.3c1.5-1.1,3.1-2.2,4.6-3.3c11.7-8.3,23.6-16.4,35.5-24.3 c-13.1-14-25.9-25.6-37.3-32.7c-29.3-18.3-44.3-21.7-50.8-22.1l2.9-0.8l4.9-7.4c6.9-11.3,5.8-26.7-2-37.4 c-7.8-10.7-21.5-16.6-34.7-15.4c-13.2,1.1-25.5,8.9-32.9,19.9c-5.3,7.9-8.2,17.5-7,26.9c0.7,5.7,3.1,11.3,6.8,15.7 c0.8,1,1.7,1.9,2.7,2.7c-22.8,6.3-59.2,20.8-80.9,51.7c-11.5,16.4-18.2,32-21.5,46.5c0,0-6.9,35.7-0.6,67.7 c0.2,1.2,0.5,2.4,0.8,3.6c0.2,1.1,0.5,2.3,0.8,3.4c0,0.1,0,0.1,0,0.2c2.4,9.1,16.4,30.3,42.4,37.9c1.7,0.5,3.5,0.9,5.3,1.3 c1.4,0.3,2.9,0.5,4.3,0.7h0c0.9,0.1,1.8,0.2,2.6,0.3c0.2,0,0.3,0,0.5,0.1c0.2,0,0.3,0,0.5,0c0.3,0,0.6,0.1,0.9,0.1 c1.7,0.1,3.5,0.2,5.3,0.2c0.3,0,0.5,0,0.8,0c0.2,0,0.4,0,0.6,0h0c0.2,0,0.3,0,0.5,0c0,0,0,0,0,0c1.6,0,3.1-0.1,4.7-0.3 c0.2,0,0.5,0,0.7-0.1h0c1.9-0.2,3.8-0.3,5.8-0.6c13.1-1.4,26.8-3.9,35-5.6c2.5-0.5,4.4-0.9,5.8-1.3c0,0,0,0,0,0 c0.1,0,0.2-0.1,0.3-0.1c13.2-4,44.5-13.5,53.3-16.9c10.9-4.1,19.8-7.9,17.8-14.9c-1.9-6.5-15.9,1.1-17.1-3.1 c-1.7-6.3,16.8-5,14.7-15.2c-1.5-7.1-16,1.8-17.2-2.8c-1.5-6.1,15.9-4.5,14.4-13.2c-1.5-9.1-16.5,2.5-18-2.6 c-0.1-0.3-0.1-0.6-0.1-1c0.3-2.9,5.9-5.1,9.9-7.9c0,0,0.1-0.1,0.1-0.1c0.4-0.3,0.9-0.7,1.3-1c0,0,0,0,0.1-0.1 c1.7-1.5,2.7-3.2,2.3-5.2c-0.1-0.3-0.1-0.6-0.2-0.8c-0.4-1.2-1.2-2-2.3-2.5c14.7-11.4,29.8-22.6,45.1-33.3 c1.2-0.8,2.4-1.7,3.6-2.5c1.2-0.8,2.4-1.7,3.6-2.5c9.9-6.8,19.9-13.5,29.9-19.9c2.3-1.5,4.6-2.9,6.9-4.3c1,0.3,2.1,0.8,3.1,1.3 c1.1,0.6,2.3,1.3,3.4,2c5.6,3.2,11.5,5.6,18.9-8.4l2-3.5l13.4-23.9C512.6,189.5,512.6,188.9,512.3,188.4z M495.4,205.6 c-0.1,0-0.1,0-0.2,0c-0.7,0-1.3-0.1-1.9-0.4c-0.1,0.2-0.3,0.3-0.4,0.4l-1.1,0.9l-2.8,2.2l-12.3,9.6c-0.5,0.4-1,0.5-1.5,0.5 c-0.6,0-1.1-0.2-1.6-0.6c-0.1-0.1-0.3-0.2-0.4-0.4c-0.2-0.2-0.3-0.4-0.4-0.7c-0.3-0.7-0.2-1.5,0.2-2.2c0,0,0,0,0,0 c0.1-0.2,0.3-0.4,0.6-0.6l13.8-10.8l2.4-1.9c0,0,0,0,0.1,0c-0.1-0.4-0.2-0.8-0.3-1.2c0-0.3-0.1-0.5-0.1-0.8 c0-3.2,2.6-5.9,5.9-5.9c3.2,0,5.9,2.6,5.9,5.9C501.3,203,498.6,205.6,495.4,205.6z"></path> </g> <g> <g> <path class="st2" d="M473.5,218.2c-0.1-0.1-0.3-0.2-0.4-0.4c-0.2-0.2-0.3-0.4-0.4-0.7c0.2,0.2,0.4,0.4,0.5,0.6 C473.3,217.9,473.4,218.1,473.5,218.2z"></path> </g> </g> <g> <g> <g> <path class="st0" d="M473.3,217.8c-0.1-0.2-0.3-0.5-0.5-0.6c0.1,0.2,0.2,0.5,0.4,0.7c0.1,0.1,0.2,0.3,0.4,0.4 C473.4,218.1,473.3,217.9,473.3,217.8z"></path> <path class="st0" d="M265.8,385.5c-1.7,1.6-3.3,3.1-4.9,4.6c-13.4,12.7-25.9,24.9-37.2,36.2c-47.7,47.6-83.3,88-98.9,106 c-0.9,1-1.7,2-2.4,2.8c-4,4.6-6.1,7.2-6.2,7.3c-0.6,0.7-1.5,1.2-2.5,1.2c-0.8,0-1.5-0.3-2.1-0.8c-0.7-0.6-1.1-1.3-1.2-2.2 c-0.1-0.9,0.2-1.7,0.7-2.4c0.1-0.1,2.3-2.8,6.5-7.7c0.8-0.9,1.7-2,2.6-3.1v0c15.8-18.4,51.3-58.4,98.8-105.8 c11.4-11.4,24-23.6,37.5-36.5c0.2-0.2,0.5-0.4,0.7-0.7c0.2,0,0.3,0.1,0.5,0.1c0.2,0,0.3,0.1,0.5,0.1c0.3,0.1,0.6,0.1,0.9,0.1 c1.8,0.2,3.8,0.4,5.7,0.5c0.2,0,0.3,0,0.5,0C265.4,385.5,265.6,385.5,265.8,385.5C265.7,385.5,265.8,385.5,265.8,385.5z"></path> </g> </g> </g> <g> <g> <path class="st0" d="M382.6,293.9c-0.4,0.4-0.8,0.7-1.3,1C381.7,294.6,382.1,294.3,382.6,293.9z"></path> </g> </g> <g> <path class="st0" d="M323.4,372.7c-0.1,0-0.2,0.1-0.3,0.1C323.1,372.7,323.3,372.7,323.4,372.7L323.4,372.7z"></path> </g> <g> <path class="st0" d="M473.5,218.2c-0.1-0.1-0.3-0.2-0.4-0.4c-0.2-0.2-0.3-0.4-0.4-0.7c0.2,0.2,0.4,0.4,0.5,0.6 C473.3,217.9,473.4,218.1,473.5,218.2z"></path> </g> <g> <path class="st2" d="M473.5,218.2c-0.1-0.1-0.3-0.2-0.4-0.4c-0.2-0.2-0.3-0.4-0.4-0.7c0.2,0.2,0.4,0.4,0.5,0.6 C473.3,217.9,473.4,218.1,473.5,218.2z"></path> </g> </g> <g> <path class="st0" d="M577,622.5c-2.8,0-5.6-1.2-7.6-3.5c-3.6-4.2-3.2-10.5,1-14.1c73.3-63.3,115.4-155.2,115.4-252 C685.8,169.3,536.5,20,352.9,20S20,169.3,20,352.9c0,56.5,14.4,112.4,41.7,161.5c2.7,4.8,0.9,10.9-3.9,13.6 c-4.8,2.7-10.9,0.9-13.6-3.9C15.3,472,0,412.8,0,352.9c0-47.6,9.3-93.9,27.7-137.4c17.8-42,43.2-79.8,75.6-112.2 c32.4-32.4,70.1-57.9,112.2-75.6C259,9.3,305.3,0,352.9,0s93.9,9.3,137.4,27.7c42,17.8,79.8,43.2,112.2,75.6 c32.4,32.4,57.9,70.1,75.6,112.2c18.4,43.5,27.7,89.7,27.7,137.4c0,102.6-44.6,200-122.3,267.1 C581.6,621.7,579.3,622.5,577,622.5z"></path> </g> </g> </g> <g id="Skolbio"> </g> <g id="Musik"> </g> </svg> 
