<?xml version="1.0" encoding="UTF-8"?> <svg xmlns="http://www.w3.org/2000/svg" xmlns:xlink="http://www.w3.org/1999/xlink" version="1.1" x="0px" y="0px" viewBox="0 0 1500 1500" style="enable-background:new 0 0 705.8 704.6;" xml:space="preserve" width="300" height="300"> <style type="text/css"> .st0{fill:#d0d8e3;} .st1{fill:#d0d8e3;} </style> <g id="Layer_1"> </g> <g id="Konst"> <g> <g> <g> <g> <path class="st0" d="M242.1,421.2l0.2,2c0.1-0.4,0.2-0.8,0.3-1.3C242.5,421.7,242.3,421.4,242.1,421.2z"></path> </g> <g> <path class="st1" d="M485.6,213.9c0,0.2-0.1,0.5-0.1,0.8l0.4-0.3C485.8,214.2,485.7,214,485.6,213.9z"></path> <path class="st1" d="M606.3,131c-1.4-1.9-3.7-3-6-3c-2.4,0-4.7,1.2-6.1,3.1c-6.3,8.7-15.9,21.1-26,27.5 c-7.9,5-16.2,6.9-25.8,9.2c-2.8,0.7-5.8,1.4-8.7,2.1c-2,0.5-4,1-6,1.5c-7.4,1.8-15.1,3.6-22.4,7.6 c-9.9,5.5-21.3,15.6-25.3,27.9c-3.4-3.9-7-7.6-10.9-11c-18.8-16.8-45.2-28.6-69.7-33.9c-6.2-1.4-12.5-2.2-18.8-2.6l2.7-2.3 c9.5-8.8,12.7-23.7,8.2-35.9c-4.4-12.2-15.9-21.4-28.6-23.9c-12.8-2.5-26.5,1.5-36.4,9.9c-7.1,6-12.5,14.3-13.9,23.5 c-0.8,5.6-0.1,11.5,2.2,16.7c2.1,4.6,5.7,8.4,10.2,10.9l5.2,2.8c-0.3,0-0.6,0-0.9,0c-8.1,0.7-16.1,2.7-23.8,5.5 c-24.8,9.2-45.3,27.5-60.8,48.6c-12.1,16.4-20.7,34.5-28.3,53.3c-7.2,17.8-14,36.4-14.9,55.8c-0.7,15.4,8,34.2,16.2,47 c0.2,0.2,0.3,0.5,0.5,0.8c0.2,0.3,0.4,0.7,0.6,1c0.2,0.4,0.5,0.7,0.7,1.1c0.2,0.3,0.4,0.6,0.6,0.8l0,0 c4.6,7,12.9,19.7,20.9,31.7c0.2,0.4,0.5,0.7,0.7,1.1c0.3,0.5,0.7,1,1,1.5c0.4,0.6,0.7,1.1,1.1,1.7c0.3,0.4,0.6,0.9,0.8,1.3 c0.4,0.6,0.9,1.3,1.3,1.9c0.2,0.3,0.4,0.7,0.7,1c1.8,2.6,3.4,5.1,5,7.5c0.2,0.2,0.3,0.4,0.4,0.6c0.6,0.8,1.1,1.6,1.5,2.2 c3.1,4.5,6.1,8.5,9,11.2c1,0.9,1.9,1.6,2.9,2.2c1.5,0.8,3,1.2,4.4,1c0.8-0.1,1.7-0.4,2.6-0.9c1-0.6,1.5-1.4,1.7-2.3 c0.2-1.2,0-2.6-0.5-4c-0.4-1.1-0.8-2.3-1.3-3.4c-1.4-3.4-2.9-6.5-1.1-7.6c2.3-1.3,4.2,0.9,6.3,3.7c0.7,0.9,1.4,1.9,2.1,2.8 c0.7,0.9,1.5,1.8,2.3,2.6c2.1,1.9,4.5,2.9,7.7,1.4c2.8-1.4,2.1-4.5,0.7-7.7c-0.5-1.1-1-2.2-1.5-3.2c-0.6-1.2-1.1-2.4-1.4-3.4 c-0.4-1.4-0.3-2.5,0.7-3.1c1.1-0.6,2.1-0.4,3.1,0.3c0.8,0.6,1.6,1.5,2.4,2.6c0.6,0.9,1.3,1.9,2,2.9c2.4,3.4,5,6.6,9,4.9 c4.9-2.2,1.9-7-0.6-11.2c-0.7-1.1-1.3-2.2-1.7-3.1c-0.8-1.7-0.9-3,0.3-3.8c1.2-0.7,2.4-0.3,3.8,0.7c0.9,0.6,1.8,1.4,2.7,2.3 c3.6,3.5,7.7,8.4,11.7,6.4c4.4-2.2,3-7.3-1.1-14.4c-0.1-0.2-0.2-0.4-0.4-0.6c-0.3-0.5-0.8-1.4-1.4-2.4c-0.5-0.9-1-1.9-1.7-3.1 c-3.1-5.7-7.8-14.6-12.8-24.3c-0.2-0.4-0.4-0.7-0.5-1.1c-0.2-0.4-0.5-0.8-0.7-1.2c-0.2-0.3-0.3-0.5-0.5-0.8 c-0.4-0.8-0.8-1.5-1.3-2.3c-0.1-0.3-0.3-0.5-0.4-0.8c-0.4-0.8-0.9-1.5-1.3-2.3c-0.4-0.7-0.8-1.4-1.2-2.1 c-12.8-22.8-18.9-33.8-19.7-37c-1.1-4.3-0.5-8.6,0.7-12.4c2.4-7.5,7.4-13.1,7.7-13.5c1.3-1.4,3.5-1.6,4.9-0.3 c1.4,1.3,1.6,3.5,0.3,4.9c-0.1,0.1-7.3,8.3-7.3,16.5c0,1,0.1,2.1,0.4,3.1c0.7,2.8,10.9,20.8,19,35.3c0.2,0.4,0.4,0.7,0.6,1.1 c0.6,1,1.2,2.1,1.7,3.1c0.3,0.5,0.5,0.9,0.8,1.4c0.3,0.6,0.6,1.1,1,1.7c0.3,0.5,0.5,0.9,0.8,1.4c0.6,1.1,1.2,2.1,1.8,3.1 c0.4-0.1,0.9-0.3,1.3-0.4c13.6-4,26.8-6.1,39-6.1c3,0,6,0.1,9,0.4c1.7,0.1,3.4,0.3,5.1,0.6c1.6,0.2,3.2,0.5,4.8,0.8 c8.6,1.6,16.5,4.5,23.5,8.5c13.9,7.9,23.3,19.9,27.1,34.8c3.9,15.3,1.3,31-7.4,45.3c-6.2,10.2-15.4,19.3-26.8,26.6 c-11.4,7.3-24.9,13-39.8,16.4c-14.6,3.4-29,4.6-42.8,3.5c-6.7-0.5-13.1-1.5-19.2-3.1c-5.8-1.5-11.7-3-15.9-6.5 c-3.9-3.4-7.2-8.9-5.7-12.7c0.7-1.6,4.3-2.7,10.9-3.4c0.4,0,0.7-0.1,1-0.1c0.3,0,0.8-0.1,1.3-0.1c6-0.5,18.3-1.5,20.8-9.3 c0.9-2.8,0.2-4.9-0.6-6.2c-3-5-11.9-7-31.8-10.9c-1.1-0.2-2.3-0.5-3.4-0.7c-1.5-0.3-2.9-0.7-4.3-1.2c-1.3-0.4-2.7-0.9-3.9-1.4 c-4-1.7-7.3-4.1-9-7.7c-0.1-0.3-0.2-0.5-0.4-0.8c-1.5-4-1.8-8-0.6-12.8l-0.2-2c-0.3-0.5-0.7-1-1-1.5c-0.3-0.5-0.7-1-1-1.5 c-0.3-0.5-0.6-1-1-1.5c-0.5-0.7-0.9-1.4-1.4-2.1c-0.2-0.3-0.4-0.6-0.6-0.9l-61.4,50.4c-3.9,3.2-6.2,7.7-6.7,12.6 c-0.5,5,1,9.8,4.2,13.7c3.5,4.2,8.8,6.7,14.3,6.7c4,0,7.9-1.3,11.1-3.7l45.4-34.2c0.9,23.5,2,54.8,1.3,57.2 c-1.2,3.8-68.2,111.1-68.2,111.1l82.4,77.1l92.4-133.4c0,0,0,0,0,0c7-12.3,13.8-25.5,14.5-30.7c1.4-10.9-2.6-37-2.6-37.3 c-0.3-1.9,1-3.7,2.9-4c1.9-0.3,3.7,1,4,2.9c0.2,1.1,4.3,27.4,2.7,39.3c-1.1,7.9-12.1,27.9-20.1,41.5v121.5H478V393.5 c-10.2-3.9-49.5-18.9-59.7-23c-10.5-4.3-26.3-10.8-21.3-25.1c0.3-0.8,0.6-1.4,1-2c0.9-1.4,2.2-2.2,3.6-2.7c0,0,0,0,0,0l2.7-2 c-0.9-0.8-1.7-1.6-2.3-2.6c-0.6-1-1.1-2.1-1.3-3.4l-33.2,25c-16.9-2.7-36.1-1.2-56.1,4.5l143.6-117.9 c2.9,6.7,10.5,21.4,23.6,29.6l-25.4,19.1c1.4,0.4,2.8,0.8,4.2,1.2c1.4,0.4,2.8,0.8,4.2,1.2c4.7,1.3,9.7,2.7,14.6,3.9 c1.9,0.5,3,2.4,2.5,4.2c-0.5,1.9-2.5,3.3-4.3,2.9c-1-0.2-15.1-3.8-20.5-5.2c-1.5-0.4-2.9-0.8-4.3-1.1h0 c-1.5-0.4-2.9-0.8-4.3-1.2c-7.6-2.1-13.4-3.7-15.4-4.3c-3.8-1.2-6.7-1.8-9-1.9h0c-1.5,0-2.6,0.2-3.5,0.7 c-1,0.6-1.6,1.4-1.9,2.7c-0.8,3.5,3.2,6,7.1,8.5c3.4,2.1,6.6,4.1,6.2,6.7c0,0.2-0.1,0.3-0.1,0.5c-0.2,0.6-0.6,1.1-1.1,1.3 c-0.5,0.2-1,0.3-1.6,0.3c-1.4,0-3.2-0.6-5.2-1.3c-3.1-1-6.6-2.1-8.5-1c-0.8,0.5-1.3,1.3-1.6,2.6c-0.7,3.6,2.3,5.4,5.8,6.9 c0.6,0.3,1.3,0.5,1.9,0.8s1.3,0.5,1.9,0.8c1.3,0.6,2.5,1.1,3.3,1.9c1,0.9,1.5,2,1.1,3.4c-0.7,2.3-3.7,1.8-7.1,1.1 c-0.3-0.1-0.5-0.1-0.8-0.2c-1.4-0.3-2.7-0.6-3.8-0.8c-3-0.4-5-0.1-5.6,2.2c-0.2,0.8-0.2,1.5-0.2,2.1c0.1,1.3,0.7,2.4,1.5,3.2 c1.6,1.7,4.2,2.8,6.7,3.9c2,0.9,3.9,1.7,5.1,2.8v0c1.1,0.9,1.6,2.1,1.1,3.6c-0.3,1.1-1.3,1.6-2.7,1.6c0,0,0,0,0,0 c-1.4,0.1-3.1-0.2-5-0.6c-3.7-0.7-7.4-1.3-9,0.6c-0.2,0.3-0.4,0.6-0.5,1c-2,6.4,5.8,10.2,17,14.8c10.6,4.4,52.5,20.6,56.1,21.9 c0.1,0,0.2,0.1,0.2,0.1v-0.2c0,0,41.9,13,48.8-16.5c4.3-18.3-0.9-48.8-4.9-66.8c-3.1-14-7-28.4-12.2-42.2l7.1-4.8 c12.5-0.7,26.7-7.6,42.1-20.4c12.1-10.1,22.4-23.8,30.4-40.8c1.8-3.8,3.5-7.8,5.1-11.9c1.6-4.3,3.2-8.7,4.7-13.5 c0.7-2.3,1.5-4.7,2.3-7.3c1.4-4.6,2.6-9.2,3.8-13.6c0.8-3,1.6-6.1,2.5-9.2C608.2,135.3,607.7,132.9,606.3,131z M243.9,450.7 l-49.2,37.1c-2.1,1.6-4.5,2.3-6.9,2.3c-3.3,0-6.6-1.4-8.9-4.2c-4.1-5-3.4-12.3,1.5-16.4l54.6-44.8c-0.7,4.8-0.2,9.3,1.5,13.6 c1.5,4,4.2,6.9,7.4,9.2c0.7,0.5,1.5,1,2.3,1.5L243.9,450.7z M484.7,269.2c-2.4-1.2-4.6-2.8-6.6-4.4l0,0 c-4.8-4-8.7-9.1-11.5-13.7c0,0,0,0,0,0c-3.1-5-5.1-9.5-5.9-11.5l19.1-15.7c3.2,11,12.2,24.4,24.7,28.9l1.3,0.4L484.7,269.2z M600.8,135.7c-2.1,7.6-3.9,15.2-6.2,22.7c-0.7,2.4-1.4,4.8-2.2,7.2c-1.4,4.4-2.9,8.8-4.6,13.1c-1.5,3.9-3.1,7.7-4.9,11.4 c-6.9,14.5-16.2,28.1-28.6,38.4c-10.4,8.6-25.6,18.9-39.9,18.9c-1.1,0-2.2-0.1-3.2-0.2c-0.6-0.1-1.1-0.2-1.7-0.3 c-1.5-0.3-3-0.8-4.4-1.5c-0.5-0.2-1-0.5-1.4-0.7c-1.3-0.7-2.6-1.6-3.8-2.5c-7.7-6.1-12.9-16.3-14.2-23.3 c-0.2-1.3-0.4-2.6-0.3-3.6c0-0.2,0-0.5,0-0.7c0-0.2,0-0.5,0.1-0.8c0.2-1.6,0.5-3.1,1-4.6c3.3-10.5,13.5-19.3,22.2-24.1 c8.3-4.6,17.6-6.1,26.7-8.4c13-3.4,25.1-4.9,36.6-12.2c10.8-6.8,20.5-19,27.9-29.3c0.1-0.2,0.3-0.2,0.4-0.2 C600.6,135,600.9,135.3,600.8,135.7z"></path> </g> </g> <g> <g> <path class="st0" d="M242.6,421.9c-0.1,0.4-0.2,0.9-0.3,1.3l-0.2-2C242.3,421.4,242.5,421.7,242.6,421.9z"></path> <path class="st1" d="M242.1,421.2l0.2,2c0.1-0.4,0.2-0.8,0.3-1.3C242.5,421.7,242.3,421.4,242.1,421.2z"></path> </g> <g> <path class="st1" d="M413.5,418.1c0,3.8-2.5,7-5,9.5c-2.5,2.5-5.7,5.3-9.5,5.3s-7.2-2.7-9.7-5.2c-2.5-2.5-4.8-5.9-4.8-9.7 c0-3.8,1.9-7.7,4.4-10.2c2.5-2.5,6.4-1.9,10.2-1.9s7.2-0.1,9.7,2.4C411.2,410.9,413.5,414.3,413.5,418.1z"></path> </g> <g> <path class="st1" d="M348.7,472.9c-1.6,6.5-7.4,11-14.1,11.3c-2.2,0.1-4.5-0.2-6.3-1.5c-1.8-1.2-2.9-3.1-4.1-4.9 c-1-1.7-2-3.3-2.6-5.2c-1.6-5,1.6-8.6,3.5-12.9c0.4-0.9,0.8-1.8,1.4-2.5c1.1-1.1,2.6-1.5,4.1-1.7c7.5-1,11.4,1.8,15,7.9 c1.4,2.4,2.9,4,3.2,6.3C349,470.7,349,471.7,348.7,472.9z"></path> </g> <g> <path class="st1" d="M389.7,453c0,2.5,0,5.4-1.2,7.4c-2.5,4.3-7.7,6.8-12.6,6.1c-3.1-0.5-5.9-1.8-8.7-3.2 c-1.4-0.7-2.9-1.4-4-2.5c-2.8-2.8-2.2-7.7-1.1-11.1c1.8-5.3,8.1-11.3,14-11.3C382.7,438.5,389.7,446.7,389.7,453z"></path> </g> <g> <path class="st1" d="M387,387.3c0,5.6-7.1,11.6-12,13.3c-5.8,2-13-1.3-15.8-6.5c-2.3-4.2-2-10,0.8-13.9 C366.6,371.1,387,374.9,387,387.3z"></path> </g> </g> </g> <g> <g> <path class="st1" d="M126,620c-2.4,0-4.7-0.8-6.6-2.5c-37.2-32.8-66.5-72.2-87.1-117C10.8,454.1,0,404.4,0,352.9 c0-47.6,9.3-93.9,27.7-137.4c17.8-42,43.2-79.8,75.6-112.2c32.4-32.4,70.1-57.9,112.2-75.6C259,9.3,305.3,0,352.9,0 c39.7,0,78.8,6.6,116,19.5c36,12.5,69.5,30.7,99.8,54.1c4.4,3.4,5.2,9.7,1.8,14c-3.4,4.4-9.7,5.2-14,1.8 C497.7,44,427.3,20,352.9,20C169.3,20,20,169.3,20,352.9c0,95.4,41,186.4,112.6,249.6c4.1,3.7,4.5,10,0.9,14.1 C131.5,618.9,128.8,620,126,620z"></path> </g> <g> <path class="st1" d="M528,657.8c-3.4,0-6.7-1.7-8.6-4.9c-2.8-4.7-1.3-10.9,3.5-13.7c100.5-59.8,162.9-169.5,162.9-286.3 c0-60.8-16.5-120.2-47.8-171.9c-2.9-4.7-1.3-10.9,3.4-13.7c4.7-2.9,10.9-1.3,13.7,3.4c33.1,54.8,50.6,117.9,50.6,182.3 c0,62.3-16.4,123.5-47.6,177.1c-30.2,52-73.4,95.7-125.1,126.4C531.5,657.3,529.8,657.8,528,657.8z"></path> </g> </g> </g> </g> <g id="Teater"> </g> <g id="Museum"> </g> <g id="Författarbesök"> </g> <g id="Skolbio"> </g> <g id="Musik"> </g> </svg> 
