<?xml version="1.0" encoding="UTF-8"?> <svg xmlns="http://www.w3.org/2000/svg" xmlns:xlink="http://www.w3.org/1999/xlink" version="1.1" x="0px" y="0px" viewBox="0 0 705.8 704.1" style="enable-background:new 0 0 705.8 704.1;" xml:space="preserve"> <style type="text/css"> .st0{fill:#FFFFFF;} </style> <g id="Layer_1"> </g> <g id="Konst"> </g> <g id="Teater"> <g> <g> <g> <path class="st0" d="M602.3,41.3c-3.9-4.4-9.3-4.4-11.9-4.4c-21.6-0.1-33-3.7-35.1-4.4c-0.1,0-0.1,0-0.2-0.1c0,0-0.1,0-0.1,0 c0,0-0.1,0-0.1,0c0,0-0.1,0-0.2,0c-2.1-0.6-13.5-4.4-31.1-16.9c-1.8-1.3-5.1-3.6-9.6-3.6c-0.9,0-1.8,0.1-2.7,0.3 c-8.1,1.8-12,10.5-14.3,15.6l-0.3,0.8c-2.2,4.8-3.5,9.7-4.8,14.4c-0.3,1.2-0.7,2.5-1,3.7c-5.9,20.7-5.3,42.1,1.6,60.4 c0.2,0.6,0.5,1.3,0.8,1.9v0c-2.5,6-5.5,12.5-8.9,18.8c-3.7,6.7-14.8,12.8-23.5,15.9c-30.2,10.8-79.7,15.1-95.2,16.7l4-4.5 c8.5-10.2,9.7-25.6,3.6-37.3c-6.1-11.8-18.8-19.6-32.1-20.4c-13.2-0.8-26.5,5-35.5,14.8c-6.4,7-10.8,16.1-11,25.6 c-0.1,5.8,1.4,11.7,4.4,16.6c2.7,4.4,6.9,7.8,11.7,9.6l1.8,0.7c-15.4,5.9-55.2,23.5-82,58.2c-33.9,43.9-46.1,84.7-43.5,115.3 c2.7,31.4,13.6,43.3,36.4,49.2c17.7,4.5,31.6,0.3,36.9-1.9c9.4-5.9,27.9-17.4,48.1-30.6c22.2-14.4,46.7-30.7,63.8-43.3 c0.4-0.5,0.7-0.9,1-1.4c2-2.9,2.6-5.8,0.8-8.6c-3.7-5.8-15.2,5.7-17.6,1.9c-3.5-5.7,15-9.7,10-19.1c-3.5-6.5-15.2,6.4-17.6,2.2 c-3.3-5.5,14.2-9,10.3-17.1c-4.1-8.5-15.4,7.2-18.3,2.7c-3-4.8,12.5-12.2,8.9-18.8c-2.4-4.5-7.8-2.7-15.2,2 c-0.8,0.5-2.4,1.5-4.6,2.7c-5.6,3.3-15.1,8.8-25.9,14.8l-43,25.8c-0.6,0.3-1.2,0.5-1.8,0.5c-0.8,0-1.6-0.3-2.2-0.8 c-0.3-0.2-0.6-0.6-0.8-0.9c-1-1.7-0.5-3.8,1.2-4.8l73.7-44.1c0-0.5-0.1-0.9-0.2-1.3c-0.9-4.3-2.8-12,0.6-15.8 c1.7-1.9,4.3-2.1,6.7-2.1c24.9-0.3,37-5,37.5-5.1c0.4-0.2,13-3.6,33.1-18.2c1.9-1.4,4.1-2.8,6.7-2.3c5,1.1,8,8.4,9.9,12.4 c2.5,5.5,3.8,11.2,5.5,17c5.3,18.1,5.6,38.2-1,56c-3.8,10.2-10.8,18.9-20.5,24.1c-1.2,0.7-2.5,1.2-3.8,1.6 c-1.3,0.4-2.7,0.8-4.1,1c-7,1-14,0.2-20.5-2.1c-32.4,24.7-99.2,66.6-118.4,78.5c-0.1,19.6-1.1,70.4-7.9,88.7 c-8.5,22.8-94,222.5-94,222.5h118.2l88.5-218.5c0,0,9.5,61.7,9.4,80.2c-0.1,27.3-41.2,138.2-41.2,138.2h107.2 c0,0,38.8-130.8,41.5-148.8c2.5-16.1-0.4-125.9-6.2-190.3c-5.9-64.4-17.9-127.4-17.9-127.4s54.5-25.8,73.8-45.2 c10.5-10.5,23.5-41.2,33.2-67.1c13.7-10.8,24.6-26.3,31.1-44.2c0.4-1.2,0.9-2.4,1.3-3.6c1.7-4.5,3.4-9.2,4.5-14.5l0.2-0.8 C605.9,56.7,607.8,47.4,602.3,41.3z M597.8,61.8c-1.2,6-3.5,11.3-5.5,17c-4.2,11.7-10.7,22.9-19.2,32.1 c-4.4,4.7-9.2,9-14.6,12.5c-7.5,5-16.2,7.8-25,7.8c-1.9,0-3.8-0.1-5.7-0.4c-1.4-0.2-2.7-0.5-4.1-0.9c-1.3-0.4-2.6-1-3.9-1.6 c-9.7-5.1-16.8-13.7-20.6-23.9c-0.7-1.9-1.3-3.8-1.9-5.7c-4.8-16.3-4.2-34.1,0.4-50.3c1.7-5.8,2.9-11.5,5.4-17.1 c1.8-4,4.8-11.4,9.8-12.5c0.4-0.1,0.8-0.1,1.2-0.1c2.1,0,3.9,1.2,5.5,2.3c20.3,14.4,32.8,17.8,33.3,17.9 c0.4,0.1,12.6,4.7,37.5,4.8c2.4,0,5,0.2,6.7,2.1C600.5,49.7,598.6,57.5,597.8,61.8z"></path> </g> <g> <g> <g> <path class="st0" d="M413.9,287.1c-1.8,0.6-3.8-0.4-4.4-2.2c-1.4-4.2-8.2-5.9-14.9-3.7c-3.5,1.1-6.5,3.2-8.3,5.7 c-0.9,1.2-2.3,3.7-1.5,6.2c0.6,1.8-0.4,3.8-2.2,4.4c-0.4,0.1-0.7,0.2-1.1,0.2c-1.5,0-2.8-0.9-3.3-2.4c-1.3-4-0.4-8.6,2.5-12.5 c2.7-3.7,6.9-6.5,11.8-8.1c10.7-3.5,21.1,0.1,23.8,8.1C416.8,284.5,415.8,286.5,413.9,287.1z"></path> </g> <g> <g> <path class="st0" d="M405.2,251.5c-1.8,0.6-3.6,0.9-5.3,0.9c-4.9,0-9-2.3-10.3-6.3c-0.6-1.8,0.4-3.8,2.2-4.4 c1.8-0.6,3.8,0.4,4.4,2.2c0.4,1.1,3.3,2.1,6.8,1c3.5-1.2,5.2-3.7,4.9-4.8c-0.6-1.8,0.4-3.8,2.2-4.4c1.8-0.6,3.8,0.4,4.4,2.2 C416.3,243.3,412.2,249.2,405.2,251.5z"></path> </g> <g> <path class="st0" d="M368.5,263.7c-1.8,0.6-3.5,0.9-5.3,0.9c-1.3,0-2.6-0.2-3.8-0.5c-3.2-0.9-5.6-3-6.5-5.8 c-0.6-1.8,0.4-3.8,2.2-4.4c1.8-0.6,3.8,0.4,4.4,2.2c0.2,0.5,0.8,1,1.8,1.2c1.4,0.4,3.2,0.3,5-0.3c3.5-1.2,5.2-3.7,4.8-4.8 c-0.6-1.8,0.4-3.8,2.2-4.4c1.8-0.6,3.8,0.4,4.4,2.2C379.5,255.4,375.4,261.4,368.5,263.7z"></path> </g> </g> </g> </g> <g> <g> <g> <g> <path class="st0" d="M553.4,102c-1.9,6-8.2,9.6-15.7,9.6c-2.6,0-5.3-0.4-8-1.3c-10.7-3.4-17-12.5-14.4-20.6 c0.6-1.8,2.6-2.9,4.4-2.3c1.8,0.6,2.8,2.6,2.3,4.4c-1.3,4.2,3.2,9.6,9.9,11.8c6.7,2.2,13.5,0.4,14.9-3.8 c0.6-1.8,2.6-2.9,4.4-2.3C552.9,98.2,553.9,100.2,553.4,102z"></path> </g> </g> <g> <g> <g> <path class="st0" d="M537.3,66.8c-0.5,1.5-1.8,2.4-3.3,2.4c-0.4,0-0.7-0.1-1.1-0.2c-1.8-0.6-2.9-2.6-2.3-4.4 c0.2-0.5-0.1-1.3-0.7-2c-0.9-1.2-2.4-2.2-4.2-2.7c-3.5-1.1-6.4-0.1-6.8,1c-0.6,1.8-2.6,2.9-4.4,2.3 c-1.8-0.6-2.9-2.6-2.3-4.4c1.7-5.4,8.6-7.8,15.6-5.6c3.1,1,5.8,2.8,7.6,5.1C537.5,60.9,538.2,64,537.3,66.8z"></path> </g> </g> <g> <g> <path class="st0" d="M574.1,78.6c-0.5,1.5-1.9,2.4-3.3,2.4c-0.4,0-0.7-0.1-1.1-0.2c-1.8-0.6-2.8-2.6-2.3-4.4 c0.2-0.5-0.1-1.3-0.7-2c-0.9-1.2-2.4-2.2-4.2-2.7c-3.5-1.1-6.4-0.1-6.8,1c-0.6,1.8-2.6,2.9-4.4,2.3 c-1.8-0.6-2.8-2.6-2.3-4.4c1.7-5.4,8.6-7.8,15.6-5.6c3.1,1,5.8,2.8,7.6,5.1C574.4,72.7,575,75.8,574.1,78.6z"></path> </g> </g> </g> </g> </g> </g> <g> <g> <path class="st0" d="M505.7,670c-3.7,0-7.2-2-9-5.5c-2.5-4.9-0.5-10.9,4.5-13.4c113.8-56.8,184.6-171,184.6-298.1 c0-80-28.8-157.3-81-217.7c-3.6-4.2-3.2-10.5,1-14.1c4.2-3.6,10.5-3.2,14.1,1c55.4,64,85.9,146,85.9,230.8 c0,66.9-18.8,132-54.3,188.2c-34.6,54.7-83.4,98.9-141.3,127.8C508.7,669.6,507.2,670,505.7,670z"></path> </g> <g> <path class="st0" d="M140.8,632.4c-2.2,0-4.3-0.7-6.2-2.1c-41-32.3-74.9-74.1-98.1-120.7C12.3,460.6,0,407.9,0,352.9 c0-47.6,9.3-93.9,27.7-137.4c17.8-42,43.2-79.8,75.6-112.2c32.4-32.4,70.1-57.9,112.2-75.6C259,9.3,305.3,0,352.9,0 c37.6,0,74.6,5.9,110,17.5c5.2,1.7,8.1,7.4,6.4,12.6s-7.4,8.1-12.6,6.4C423.3,25.5,388.4,20,352.9,20 C169.3,20,20,169.3,20,352.9c0,102.7,46.3,198,127,261.6c4.3,3.4,5.1,9.7,1.7,14C146.7,631.1,143.8,632.4,140.8,632.4z"></path> </g> </g> </g> </g> <g id="Museum"> </g> <g id="Författarbesök"> </g> <g id="Skolbio"> </g> <g id="Musik"> </g> </svg> 