<?xml version="1.0" encoding="UTF-8"?> <svg xmlns="http://www.w3.org/2000/svg" xmlns:xlink="http://www.w3.org/1999/xlink" version="1.1" x="0px" y="0px" viewBox="0 0 705.8 703" style="enable-background:new 0 0 705.8 703;" xml:space="preserve"> <style type="text/css"> .st0{fill:#FFFFFF;} </style> <g id="Layer_1"> </g> <g id="Konst"> </g> <g id="Teater"> </g> <g id="Museum"> </g> <g id="Författarbesök"> </g> <g id="Skolbio"> <g> <g> <g> <path class="st0" d="M351.5,597.3l0-1.7c0-7-0.1-14.2-0.4-21.2c-0.3-5.9-2.3-12.7-5.5-18.4c-4-7.2-10.4-12.9-18.5-16.6 c-6.7-3-14.4-4.9-23.7-5.6c-0.4,0-0.8-0.1-1.1-0.1h-0.1l-69.3,0.1c-0.1,0.1-0.3,0.2-0.4,0.3c-12.6,7.6-23.2,18.1-30.8,30.7 c-8.4,13.8-13.3,30-13.3,47.4c0,17.6,5,34,13.6,47.9c7.6,12.3,18.1,22.6,30.5,30.1c13.7,8.3,29.7,13,46.9,13 c17.6,0,34-5,47.9-13.6c9.2-5.7,17.3-13,23.9-21.5c0-1,0-2,0-3.1c0.2-12.7,0.3-23.9,0.4-34.4 C351.5,621.3,351.6,609.3,351.5,597.3z M210.9,590.4c3.4-10.7,9.2-20.7,17.7-29.1c8.3-8.3,18.1-14.1,28.6-17.5 c2.8-0.9,5.8,0.8,6.6,3.6l6.6,24.8l2.7,10.2c0.7,2.5-0.1,5.2-1.9,7.1c-5.4,4.2-10.3,9.2-14.9,14.9c-1.9,1.9-4.6,2.6-7.1,1.9 l-10.2-2.7l-24.5-6.6C211.6,596.1,210,593.2,210.9,590.4z M273.3,642.6l-2.7,10.1l-6.4,24c-0.8,2.9-3.8,4.6-6.6,3.7 c-10.6-3.4-20.6-9.2-29-17.7c-8.2-8.2-14-17.8-17.4-28.1c-0.9-2.8,0.8-5.9,3.6-6.7l24.5-6.6l10.1-2.7c2.5-0.7,5.2,0,7.1,1.9 c4.2,5.4,9.2,10.3,14.9,14.9C273.3,637.3,274,640,273.3,642.6z M346.9,635.9c-3.5,9.8-9.1,18.9-16.9,26.8 c-8,8-17.5,13.8-27.6,17.2c-3.6,1.2-7.6-0.9-8.6-4.6l-6.1-22.9l-2.7-10.1c-0.7-2.5,0.1-5.2,1.9-7.1c5.4-4.2,10.3-9.2,14.9-14.9 c1.9-1.8,4.5-2.6,7.1-1.9L319,621l23.3,6.3C346,628.3,348.2,632.3,346.9,635.9z M345,596.6l-25,6.7l-10.1,2.7 c-2.5,0.7-5.2,0-7.1-1.9c-4.2-5.4-9.2-10.3-14.9-14.9c-1.9-1.9-2.6-4.6-1.9-7.1l2.7-10.2l6.8-25.5c0.6-2.3,3-3.6,5.3-2.9 c10.7,3.3,20.7,9.2,29.2,17.7c8.7,8.7,14.7,19.1,18,30.1C348.6,593.6,347.3,596,345,596.6z"></path> </g> <g> <g> <path class="st0" d="M478.5,533.2V703h-121c0.1-3.7,0.1-7.3,0.2-11c0.1-9,0.3-18.1,0.4-27.1c0-2.5,0.1-5.1,0.1-7.6 c0.1-9,0.2-17.9,0.3-26.9c0.1-11.1,0.1-22.1,0.1-33.2c0-7.7,0-15.5-0.5-23.2c-0.2-3.6-0.9-7.3-1.9-10.9 c-1.1-3.7-2.6-7.3-4.5-10.6c-4.7-8.4-12-14.9-20.6-19.1L478.5,533.2z"></path> </g> </g> <g> <path class="st0" d="M431.7,310.3v-0.5c0-1.9-1.6-3.5-3.5-3.5c-1.9,0-3.5,1.6-3.5,3.5v0.5c0,27.5,0,61.8,30.7,75.1 c6.1,2.6,12.5,3.8,18.9,3.8c5.6,0,11.1-0.9,16.4-2.3c14.9,11.8,33,39.3,33,86.2c0,35.9-23.5,47.8-38.2,51.7 c-0.6,0.2-1.2,0.3-1.7,0.4H482l-3.5,0l-170.6,0.3h0l-10.5,0h0l-7.2,0l-4.6,0l-18.7,0l2.2-4.1h0l59.1-108.4h92.4 c1.9,0,3.5-1.6,3.5-3.5c0-1.9-1.6-3.5-3.5-3.5h-94.5c-1.3,0-2.5,0.7-3.1,1.8l-62.7,115h0l-1.1,2.1c-0.1,0.2-0.2,0.4-0.3,0.6 l-8.6,0h0l-24.1,0h0c-7-2.1-17.3-8.4-28.4-26c-10.7-17-9.9-37.9-8.5-48.7c20.4-6,42.1-17.5,66.1-35.2 c24-17.7,45.5-33.9,66.3-51.9c6-5.2,8.8-9.4,10.5-11.9c0.1-0.2,0.3-0.4,0.4-0.6l68.1-19.6c1.4-0.4,2.2-1.9,1.8-3.3L380.3,251v0 c0-0.2-0.1-0.5-0.2-0.8l-5.8-20c-0.9-2.9-3.9-4.6-6.8-3.8L254.1,259l103.8-56.9c1.3-0.7,2.2-1.9,2.7-3.3 c0.4-1.4,0.2-2.9-0.5-4.2l-9.7-17.7l-0.3-0.6c-0.7-1.3-1.9-2.2-3.3-2.7c-1.4-0.4-2.9-0.2-4.2,0.5l-9.2,5l0,0h0l-113.2,62.1 c-2.7,1.5-3.7,4.8-2.2,7.5l10,18.3c0.4,0.7,0.9,1.3,1.6,1.8c-0.3,0.9-0.3,2,0,3l1.1,3.8v0c0,0.2,0,0.5,0.1,0.7l7.3,25.4 c-17.3,9.1-35,17.6-53.4,26.5l-2.7,1.3c-1.8,0.8-2.5,2.9-1.6,4.7c0.6,1.2,1.9,2,3.2,2c0.5,0,1-0.1,1.5-0.3l2.7-1.3 c11.4-5.5,22.5-10.8,33.4-16.3c0,0,0,0,0.1,0c0,0,0,0,0.1,0c6.3-3.2,12.6-6.3,18.8-9.6c9-4.7,17.9-9.6,26.8-14.7 c0.6-0.3,7.4-4.9,8.7-5.8c2.9-1.9,5.5-3.4,7.9-4.4h0c1.5-0.6,2.9-1.1,4.2-1.2c0,0,0,0,0,0c2.7-0.3,4.8,0.5,6.1,3 c4.3,7.9-14,17-10.4,22.7c3.5,5.4,16.9-13.5,21.9-3.5c4.8,9.7-16,14-12,20.6c3,5,16.8-10.5,21-2.9c6.1,11.2-15.9,16.2-11.7,23 c2.9,4.5,16.5-9.4,21-2.5c2,3.1,1.7,6.3-0.3,9.5c0,0,0,0,0,0c-0.4,0.7-0.9,1.3-1.4,2h0c-3,3.9-8,7.9-13.6,12.2 c-2.1,1.6-5.4,4.1-9.3,7.1c-0.2,0.1-0.3,0.2-0.5,0.3c-14.9,12-30.5,23.6-47.2,36c-24.4,18-46.3,29.5-66.8,34.9c0,0-0.1,0-0.1,0 c-21.4,3.4-39-6.7-43.2-57.7c-4.6-55.8,28.7-134.4,73-168.8c29.2-22.8,65.5-33.5,86.7-38.2l-5.2-2c-6.1-2.3-11.3-6.5-14.7-12 c-3.8-6.1-5.7-13.5-5.6-20.7c0.2-11.9,5.6-23.3,13.6-32c11.2-12.2,27.8-19.6,44.3-18.6c16.5,1,32.5,10.7,40.2,25.4 c7.7,14.7,6.2,33.9-4.3,46.7l-4.6,5.2c20.9,2.8,46.1,10.8,57.9,14.8l0.9,56.9c0,1.9,1.6,3.4,3.5,3.4h0.1c1.9,0,3.5-1.6,3.4-3.6 l-1.3-83.7c8.3,5.1,20.1,8,34.2,8c5.7,0,11.6-0.5,17.5-1.5c14.9-2.5,28.5-7.8,38.4-15.1c2.7-2,5-4,7-6.2 c0,31.5-0.3,167.6-2.3,195c-1.2,15.6-10.8,26.5-20,33.3c0,0,0,0,0,0c-12.3,7.4-30.5,11.8-45.4,5.3 C431.7,367.5,431.7,337.1,431.7,310.3z"></path> <path class="st0" d="M226.1,247l3.5-1.9c0.1,3.3,0.1,6.2,0.2,8.6L226.1,247z"></path> <path class="st0" d="M242.8,237.9c0.2,9.8,0.4,15,0.5,17.9l-5.4,3c-0.2-5.2-0.3-12.3-0.5-17.9L242.8,237.9z"></path> <path class="st0" d="M256.6,230.3c0.2,9.5,0.4,14.8,0.5,17.9l-5.9,3.2c-0.1-5-0.3-12.2-0.5-17.9L256.6,230.3z"></path> <path class="st0" d="M264.5,226l5.8-3.2c0.2,9.7,0.4,14.9,0.5,17.9l-5.9,3.2C264.8,238.7,264.6,231.6,264.5,226z"></path> <path class="st0" d="M278.3,218.4l6.2-3.4c0.2,9.4,0.4,14.8,0.5,17.9l-6.2,3.4C278.6,231.3,278.4,224.1,278.3,218.4z"></path> <path class="st0" d="M292.3,210.7l6-3.3c0.2,9.5,0.4,14.9,0.5,17.9l-6,3.3C292.6,223.4,292.4,216.3,292.3,210.7z"></path> <path class="st0" d="M312.5,199.7c0.2,9.1,0.4,14.5,0.5,17.9l-6.3,3.5c-0.2-5.2-0.3-12.3-0.4-17.9L312.5,199.7z"></path> <path class="st0" d="M320.4,195.4l5.9-3.2c0.2,9.4,0.4,14.8,0.5,17.9l-6,3.3C320.7,207.8,320.5,200.7,320.4,195.4z"></path> <path class="st0" d="M334.2,187.8l5.9-3.2c0.2,9.8,0.4,15,0.5,17.9l-6,3.3C334.5,200.4,334.4,193.3,334.2,187.8z"></path> <path class="st0" d="M348.3,189.8l3.6,6.5l-3.4,1.8C348.4,195.7,348.4,192.8,348.3,189.8z"></path> </g> <g> <g> <path class="st0" d="M241.7,270.9c-0.7,3.3-1.2,6.1-1.7,8.4l-2.1-7.3L241.7,270.9z"></path> <path class="st0" d="M256.2,266.7c-1.9,9.6-2.9,14.7-3.4,17.5l-5.9,1.7c1-5.1,2.4-12.1,3.5-17.6L256.2,266.7z"></path> <path class="st0" d="M271.3,262.3c-1.9,9.3-2.9,14.6-3.4,17.6l-6.5,1.9c1-5,2.3-12,3.5-17.6L271.3,262.3z"></path> <path class="st0" d="M286.4,258c-1.9,9.5-2.9,14.7-3.4,17.6l-6.5,1.9c1-5.1,2.4-12.1,3.5-17.6L286.4,258z"></path> <path class="st0" d="M301.8,253.6c-1.9,9.2-2.9,14.5-3.4,17.6l-6.8,2c1-5,2.4-12,3.5-17.6L301.8,253.6z"></path> <path class="st0" d="M317,249.2c-1.9,9.3-2.9,14.6-3.4,17.6l-6.6,1.9c1-5.2,2.4-12.2,3.5-17.6L317,249.2z"></path> <path class="st0" d="M332.6,244.7c-1.8,8.9-2.9,14.3-3.5,17.6l-6.9,2c1-5.1,2.4-12.1,3.5-17.6L332.6,244.7z"></path> <path class="st0" d="M347.7,240.4c-1.8,9.2-2.9,14.5-3.4,17.6l-6.5,1.9c1.1-5.4,2.4-12.4,3.5-17.6h0L347.7,240.4z"></path> <path class="st0" d="M362.9,236c-1.9,9.6-2.9,14.7-3.4,17.6c0,0,0,0,0,0l-6.6,1.9c1-5.2,2.4-12.2,3.5-17.6L362.9,236z"></path> <path class="st0" d="M371.8,250l-3.7,1.1c0.5-2.4,1-5.3,1.6-8.2L371.8,250z"></path> </g> </g> <g> <g> <path class="st0" d="M226.1,247l3.5-1.9c0.1,3.3,0.1,6.2,0.2,8.6L226.1,247z"></path> <path class="st0" d="M242.8,237.9c0.2,9.8,0.4,15,0.5,17.9l-5.4,3c-0.2-5.2-0.3-12.3-0.5-17.9L242.8,237.9z"></path> <path class="st0" d="M256.6,230.3c0.2,9.5,0.4,14.8,0.5,17.9l-5.9,3.2c-0.1-5-0.3-12.2-0.5-17.9L256.6,230.3z"></path> <path class="st0" d="M264.5,226l5.8-3.2c0.2,9.7,0.4,14.9,0.5,17.9l-5.9,3.2C264.8,238.7,264.6,231.6,264.5,226z"></path> <path class="st0" d="M278.3,218.4l6.2-3.4c0.2,9.4,0.4,14.8,0.5,17.9l-6.2,3.4C278.6,231.3,278.4,224.1,278.3,218.4z"></path> <path class="st0" d="M292.3,210.7l6-3.3c0.2,9.5,0.4,14.9,0.5,17.9l-6,3.3C292.6,223.4,292.4,216.3,292.3,210.7z"></path> <path class="st0" d="M312.5,199.7c0.2,9.1,0.4,14.5,0.5,17.9l-6.3,3.5c-0.2-5.2-0.3-12.3-0.4-17.9L312.5,199.7z"></path> <path class="st0" d="M320.4,195.4l5.9-3.2c0.2,9.4,0.4,14.8,0.5,17.9l-6,3.3C320.7,207.8,320.5,200.7,320.4,195.4z"></path> <path class="st0" d="M334.2,187.8l5.9-3.2c0.2,9.8,0.4,15,0.5,17.9l-6,3.3C334.5,200.4,334.4,193.3,334.2,187.8z"></path> <path class="st0" d="M351.9,196.3l-3.4,1.8c-0.1-2.4-0.1-5.3-0.2-8.3L351.9,196.3z"></path> </g> </g> <g> <g> <path class="st0" d="M525.7,133.5c-0.9,2-2.2,4.1-3.9,6c-3.5,4.2-8.7,8.1-15.1,11.4c0.2-2,0-3.7-0.1-4.9 c-0.1-1.4-0.4-2.7-0.8-4c-0.1-0.4-0.3-0.8-0.4-1.2c2-1.6,3.7-3.3,5-5v0L525.7,133.5z"></path> <path class="st0" d="M448.2,159.8c-6.5-1.2-12.1-3.3-16.4-6.1h0c-2.4-1.5-4.3-3.3-5.8-5.2l15.1-2.3c1.8,1.4,4,2.7,6.5,3.7 c-0.1,0.4-0.1,0.9-0.1,1.4c0,0.5-0.1,0.9-0.1,1.4C447.5,155,447.5,157.4,448.2,159.8z"></path> </g> </g> <g> <g> <path class="st0" d="M560.3,121.2l-26.3,3.9l-3.5,0.5l-3.5,0.5l-13.6,2l-3.6,0.5l-3.7,0.6l-62.4,9.4l-3.6,0.5l-3.5,0.5l-13.5,2 l-3.5,0.5l-3.5,0.5l-6.8,1c-0.5,0.1-1,0.1-1.5,0.1c-4.2,0-8-2.6-9.1-6.5l-5.5-19.1c-1.2-4.2,0.9-8.8,5.2-10.9l137.9-67.6 c1.5-0.7,3.1-1.1,4.6-1.1c4.1,0,7.9,2.5,9.1,6.5l18.4,64.1C570.1,114.7,566.2,120.3,560.3,121.2z"></path> </g> </g> <g> <g> <path class="st0" d="M481.6,149.8c0,0.5,0,0.9,0,1.4c-0.1,3.5-0.9,6.2-4.3,6.2c-3.4,0-4.1-2-4.3-4.9c-0.1-0.8-0.1-1.8-0.1-2.7 c0-0.3,0-0.5,0-0.8c0-0.6,0.1-1.2,0.2-1.8c0.1-0.6,0.3-1.2,0.5-1.8c0.8-1.9,2.1-3.2,3.5-3.2c1.2,0,2.2,0.8,3,2.1 c0.3,0.5,0.5,1,0.7,1.6c0.2,0.5,0.3,1.1,0.4,1.7C481.5,148.3,481.6,149,481.6,149.8z"></path> </g> </g> <g> <g> <path class="st0" d="M463.2,152.7v0.1c0,4.1-0.6,7.5-4.4,7.5c-4.4,0-4.4-3.4-4.4-7.6c0-0.3,0-0.6,0-0.9c0-0.6,0.1-1.2,0.2-1.7 c0.1-0.6,0.3-1.2,0.5-1.7c0.6-1.5,1.5-2.7,2.6-3.1c0.3-0.1,0.7-0.2,1-0.2c0.6,0,1.1,0.2,1.6,0.6c0.9,0.6,1.7,1.8,2.1,3.2 c0.1,0.1,0.1,0.3,0.1,0.4C463.1,150.3,463.2,151.4,463.2,152.7z"></path> </g> </g> <g> <g> <path class="st0" d="M496,154.5c-0.2,0-0.4,0-0.6,0c-3.4,0-4-2.6-4.3-6.1c0-0.4-0.1-0.8-0.1-1.2c-0.1-0.9-0.1-1.7,0-2.5 c0-0.1,0-0.3,0.1-0.4c0.3-1.8,0.9-3.4,1.9-4.2c0.5-0.5,1-0.7,1.6-0.8c0,0,0.1,0,0.1,0c0.1,0,0.1,0,0.2,0c1.2,0,2.3,0.8,3.2,2.1 c0.3,0.5,0.6,1,0.8,1.6c0.2,0.5,0.4,1.1,0.5,1.6c0.1,0.6,0.2,1.2,0.3,1.8C500.1,150.8,499.9,154.2,496,154.5z"></path> </g> </g> </g> <g> <path class="st0" d="M514.2,665.6c-3.6,0-7-1.9-8.8-5.3c-2.6-4.9-0.8-10.9,4.1-13.5c108.8-58.1,176.4-170.7,176.4-293.9 c0-81.7-29.9-160.3-84.2-221.3c-3.7-4.1-3.3-10.4,0.8-14.1c4.1-3.7,10.4-3.3,14.1,0.8c57.6,64.6,89.3,148,89.3,234.6 c0,130.6-71.6,250-187,311.5C517.4,665.2,515.7,665.6,514.2,665.6z"></path> </g> <g> <path class="st0" d="M149.4,639c-2.1,0-4.1-0.6-5.9-2C100,604.9,63.9,562.5,39.1,514.5C13.5,465,0,409.1,0,352.9 c0-47.6,9.3-93.9,27.7-137.4c17.8-42,43.2-79.8,75.6-112.2c32.4-32.4,70.1-57.9,112.2-75.6C259,9.3,305.3,0,352.9,0 c45.3,0,89.4,8.5,131.1,25.2c5.1,2.1,7.6,7.9,5.6,13c-2.1,5.1-7.9,7.6-13,5.6C437.2,28,395.6,20,352.9,20 C169.3,20,20,169.3,20,352.9c0,105.2,50.6,205.4,135.4,268c4.4,3.3,5.4,9.5,2.1,14C155.5,637.5,152.5,639,149.4,639z"></path> </g> </g> </g> <g id="Musik"> </g> </svg> 